<svg viewBox="0 0 532 532" xmlns="http://www.w3.org/2000/svg">
  <g fill="none" fill-rule="evenodd">
    <circle fill="#0D2559" fill-rule="nonzero" cx="266.1" cy="265.7" r="265.5"/>
    <path d="M122.37658 439.243552c8.866529 3.658669 27.385753 8.225968 41.689568-8.910166L124.9 276.9l-6.4 8.2s40.278136 121.269378 45.78033 144.974783C167.864162 425.713852 171.177412 419.975205 174 412.5c15.1-40.1 15.4-135.7 15.4-135.7 0-1.9 1.5-3.4 3.4-3.4h139.1c1.9 0 3.4 1.5 3.4 3.4 0 0 13.5 98.7 18.5 127.1 10.741743 60.0056 48.666201 38.720307 54.219282 35.242129C413.973308 434.465216 419.809034 429.126659 425.8 423.4c1.7-1.6 3.3-3.4 5-5.1.8-.8 1.7-1.7 2.5-2.6.8-.9 1.6-1.9 2.4-2.8 1.7-1.9 3.3-3.8 5-5.7 1.6-2 3.2-4 4.8-6.1-.2-.1-.2-.1-.4-.3.1.1 1-.9 2.3-2.6 1.3-1.7 3-4.1 4.9-6.8 3.7-5.4 7.8-12.1 10.5-16.7.3.2.3.2.5.3 0 0 .4-.5 1-1.5.6-.9 1.5-2.3 2.4-4.1 1.8-3.5 4.3-8.1 6.4-13 .2.1.2.1.5.2 4.3-9.7 7.9-19.7 11-29.8l2.1-7.7c.7-2.5 1.2-5.1 1.8-7.7 1.2-5.2 1.9-10.5 2.7-15.7.3.1.3.1.6.1.6-5.3 1.7-13.1 2.1-21.1.5-7.9.5-15.9 0-21.2h.6c-.1 0-.3 0-.4-1.3 0-.6-.1-1.6-.2-3.1s-.3-3.5-.5-6.1c-.2-2-.3-3.9-.5-5.7-.2-1.8-.5-3.5-.7-5.2-.5-3.3-.8-6.3-1.4-9-.5-2.7-1-5.1-1.4-7.2-.4-2.2-.9-4-1.3-5.6-.9-3.2-1.3-5.5-1.8-6.9-.4-1.5-.6-2.1-.6-2.1-1.1-3.8-2.3-8.1-3.9-12.6-.8-2.3-1.5-4.7-2.4-7-.9-2.4-1.9-4.8-2.8-7.2-.9-2.4-2.1-4.8-3.1-7.2-1.1-2.4-2.2-4.9-3.4-7.2-1.2-2.4-2.3-4.7-3.5-7-1.2-2.2-2.5-4.4-3.7-6.6-.6-1.1-1.2-2.1-1.8-3.2-.6-1-1.3-2-1.9-3-1.3-2-2.5-3.9-3.6-5.7-2.5-3.6-4.7-6.7-6.5-9.4-1.9-2.6-3.5-4.7-4.6-6.1-.5-.8-.9-1.3-1.2-1.7-.3-.4-.4-.6-.4-.6-6.9-8.1-12.2-14.1-17.8-19.7-2.8-2.8-5.6-5.7-8.9-8.5-1.6-1.4-3.3-2.9-5.1-4.4-1.8-1.4-3.8-3-5.9-4.6.2-.3 4.7 2.6 7 4 2.2 1.5 2.6 1-5.7-5.8-8.3-6.7-19.8-15-32.5-22.3-12.6-7.4-26.5-13.8-38.7-18.1-12.1-4.4-22.3-7.1-27.5-8.7-5.2-1.6-5.1-2 3.1-.6 1.4.3 3.6.7 6.4 1.2 1.4.3 3 .6 4.7.9 1.7.3 3.5.9 5.4 1.3 2 .5 4 1 6.1 1.5 2.1.5 4.3 1.3 6.5 1.9 2.2.7 4.5 1.4 6.8 2.1 2.2.8 4.5 1.6 6.8 2.4 4.6 1.5 9 3.6 13.3 5.3 4.2 1.8 8.2 3.8 11.8 5.5 7.1 3.7 12.6 6.6 15 8.1 2.3 1.6 6 3.6 9.9 6.2 2 1.2 4.1 2.6 6.2 3.9 2.1 1.4 4.2 2.8 6.2 4.2 4.1 2.7 7.7 5.5 10.5 7.4 2.8 1.9 4.5 3.1 4.7 2.9 2.1 1.9 4.1 3.9 6 5.7 1.9 1.9 3.5 3.7 5 5.2 1.5 1.6 2.7 2.8 3.6 3.7.9.8 1.3 1.4 1.4 1.3.2-.3-2-3-5.8-7.2-.9-1-1.9-2.2-3.1-3.4l-3.7-3.7-4.1-4.1c-1.5-1.3-3-2.7-4.6-4.1-1.6-1.4-3.2-2.9-4.9-4.3-1.7-1.3-3.5-2.7-5.2-4.1-3.4-2.9-7.1-5.4-10.5-7.9-6.9-4.9-13.6-9.1-18.5-11.9-4.8-3.1-4.6-3.5-1.9-2.4 1.4.5 3.3 1.4 5.6 2.5 1.1.6 2.4 1.1 3.6 1.8 1.2.7 2.5 1.4 3.7 2.1 0 0 1.9 1 5.4 2.9 1.7.9 3.8 2.2 6.2 3.7 2.4 1.5 5.2 3.2 8.1 5.3 11.9 8.1 27.8 21.1 42.6 39 7.3 9 14.3 18.8 20.7 29.2 6.3 10.5 12 21.7 17 33.4s8.9 24.1 12.1 36.7c3.2 12.6 5.2 25.6 6.3 38.7.7 6.5.7 13.1.9 19.6-.1 3.3-.1 6.5-.2 9.8-.1 3.3-.4 6.6-.6 9.8-1 12.9-2.9 25.7-5.9 38.1-.4 1.5-.7 3.1-1.1 4.6-.5 1.6-.9 3.1-1.3 4.6-.9 3.1-1.6 6.1-2.6 9.1s-2 6-3 8.9c-.5 1.5-1 3-1.6 4.4-.6 1.4-1.1 2.9-1.7 4.3-2.1 5.8-4.8 11.2-7.3 16.7-2.8 5.3-5.4 10.6-8.4 15.6-1.5 2.5-3.3 5.6-5.6 8.9-2.3 3.3-4.6 7-7.3 10.4-2.6 3.5-5.2 7-7.8 10-2.6 3.1-4.8 5.9-6.8 8-1.9 2.2-3.9 4.3-5.8 6.5-2 2.2-4.1 4.2-6.1 6.3-1.1 1-2 2.1-3.1 3.1l-3.2 3c-2.2 1.9-4.3 4-6.5 5.9-8.8 7.8-18.3 14.8-28.2 21.4-9.9 6.5-20.4 12.2-31.2 17.4-10.8 5-22.1 9.3-33.7 12.9-11.6 3.5-23.5 6.1-35.6 8-12.1 1.8-24.3 2.6-36.6 2.7-12.3 0-24.6-1-36.8-2.7-12.2-1.9-24.3-4.5-36.2-8.1-11.8-3.7-23.5-8.1-34.7-13.4-11.2-5.4-22.1-11.6-32.4-18.5-10.3-7.1-20-14.8-29.2-23.2-9.1-8.5-17.5-17.6-25.3-27.3-7.8-9.7-14.6-20-20.9-30.7-6.3-10.6-11.6-21.9-16.1-33.3-1-2.8-2.3-5.7-3.2-8.6l-2.9-8.7c-1.7-5.9-3.5-11.8-4.7-17.8-1.5-5.9-2.4-12-3.5-18-.8-6.1-1.7-12.1-2-18.2.4 5.7 1.3 11.3 2 17 .4 2.8 1 5.6 1.5 8.4l.8 4.2 1 4.2c-1.1-4.1-1.8-8.7-3.2-14-.5-2.4-.7-4.9-1.1-7.4-.3-2.5-.7-5-1-7.6-.3-2.6-.5-5.2-.7-7.8l-.3-3.9-.1-3.9-.3-7.8c0-2.5.1-5.1.1-7.6.2-10 1.1-19.3 2.1-26.7.4-3.8 1.1-7 1.6-9.7.5-2.7.9-4.8 1.2-6.2 4-16.7 10.2-35.7 20-56.2 1.1-2.6 2.6-5.1 3.9-7.7 1.4-2.6 2.7-5.2 4.3-7.8 1.5-2.6 3-5.2 4.6-7.9 1.7-2.6 3.4-5.2 5.1-7.9 7.1-10.6 15.3-21.3 24.9-31.7.2.2 2.3-1.7 5.4-4.6 1.5-1.5 3.3-3.1 5.3-4.9 2-1.8 4-3.7 6.2-5.5 12.7-11.2 28.8-22.9 46.1-32.4 17.3-9.4 35.9-16.6 52.2-21.1l-8.1 2.5-8 2.8c-2.7.9-5.3 2-7.9 3-2.6 1.1-5.2 2-7.8 3.2-2.6 1.2-2.5 1.3-1.2.8.7-.3 1.7-.7 2.8-1.1 1.1-.4 2.5-.8 3.8-1.3 5.3-1.8 10.6-3.7 5.4-1.5-10.5 4-23.2 9.9-35.4 16.9-12.2 6.9-23.7 15-32.4 22.1l.4.4c13.1-10.5 24.9-18.2 37.2-24.9 12.3-6.7 25.1-12.5 41.1-17.7 8-2.5 14.8-4.2 20.3-5.3 5.5-1.2 9.6-1.7 12.4-2.1 5.5-.7 5.5-.4.1.7-10.9 2-22.4 5-33.9 8.9-2.8 1.1-5.8 1.9-8.6 3.1-2.8 1.1-5.7 2.3-8.6 3.4-5.6 2.6-11.4 5.1-16.9 8-11.1 5.7-21.8 12.2-31.6 19.4-9.8 7.2-18.9 14.8-26.8 22.6 4.1-3.9 6.1-5.7 7.2-6.6 1.1-.8 1.2-.7 1.3-.6 2.1-1.9 4.7-4.1 7.6-6.6 3-2.4 6.3-4.9 9.6-7.5 3.4-2.4 6.7-4.9 9.9-7 3.2-2 6.2-3.9 8.5-5.4-28.4 17.3-51 38.7-69.1 63.2-18 24.6-31.6 52.6-39.6 84.9l.5.1c.9-3.6 1.9-7.1 2.9-10.7.4-1.8 1-3.6 1.6-5.3l1.7-5.3c.3.1.8.3 1.1.4-4.5 13-9 30.5-11.2 49.1-2.3 18.6-2.3 38.3-.2 55.4 2 17.1 5.7 31.5 8.6 40.1 1.3 4.3 2.5 7.2 3.1 8.4.6 1.2.6.7 0-2-2.3-6.9-4.2-13.9-5.8-21 .3-.1.8-.2.8-.2-2.3-10.7-4.2-22.1-4.9-34-.8-11.9-.9-24.1.3-36.3 2.1-24.4 8.2-48.3 16.4-68.4 0 0 .5.2.8.3-4.1 10-7.2 20.4-9.9 30.9 1-3.9 2.1-7.5 3-10.8.4-1.7 1-3.2 1.5-4.7s1-2.9 1.5-4.3 1-2.7 1.4-3.9c.5-1.2.9-2.4 1.4-3.5 1-2.2 1.8-4.2 2.6-6.1 3.4-7.3 5.9-12.1 8.5-16.8 1-1.7 2-3.7 3.2-5.7 1.2-2 2.4-4.1 3.8-6.4 1.3-2.3 2.9-4.6 4.5-7 1.6-2.4 3.2-5 5.1-7.5 7.2-10.3 16.3-21.5 27.3-32.3 10.9-10.8 23.7-21.2 37.7-30.2 14-9 29-16.5 44.1-22.1 2.5-1 4.5-1.5 5.9-2 1.5-.4 2.4-.7 3.1-.8 1.3-.2 1.4 0 1.4.1 2.5-.9 5-1.6 7.5-2.3 2.5-.7 4.9-1.6 7.4-2.1 4.9-1.1 9.7-2.3 14.5-3.1 9.5-1.8 18.8-2.7 28.1-3.3 18.6-.8 37.4.4 58.3 4.5-21-3.8-42.4-5.2-63.6-3.3-5.3.3-10.5 1.1-15.8 1.8-2.7.4-5.3.9-7.9 1.4l-3.9.7-3.9.9c-10.4 2.3-20.5 5.6-30.5 9.2l-7.4 2.9c-2.5 1-4.9 2.1-7.3 3.2l-3.6 1.6-3.6 1.8c-2.4 1.3-4.8 2.4-7.1 3.7-9.3 5.1-18.3 10.8-26.9 17.1-8.5 6.4-16.7 13.2-24.3 20.7-2 1.8-3.7 3.8-5.6 5.7-1.8 2-3.7 3.9-5.4 5.9l-5.2 6-4.9 6.3c-26 33.6-42.4 74.7-46.6 117.1-1 10.6-1.5 21.3-1 31.9 0 5.3.7 10.6 1.1 15.9l1.1 7.9.6 3.9.7 3.9c3.7 20.9 10.6 41.3 20 60.3 2.4 4.8 3.9 7.7 5.1 9.7 1.2 2 2 3.1 2.7 4.2.7 1.1 1.5 2.2 2.7 4.2 1.3 1.9 3.2 4.6 6 9.1 6 8.7 12.5 17.1 19.5 25-3.2-4.2-3-4.4-1.1-2.5 1.8 1.9 5.6 5.6 9.2 9.4 6.400524 6.324327 13.207464 12.416417 20.37658 18.143552zM228.9 138.4c.2-1.2.4-2.6.4-4.2l-.6-3.3.2-3.3c3.9.1 6.8.2 8 .2h23.2l-2.2 4.4c-.1 1.1-2.2 5.3-2.7 6.9l-26.3-.7zm-9.5-9.9l.7 3.2-.4 4.5v.4l-24.8.6-.7-8.6c5-.6 15.7-.4 25.2-.1zm85 5.7l-33.4-2.3v-5.2h31.3l1.1 4.9c0 .9.8 1.4 1 2.6zm38.2 3.5c-.3 0-11.4-2.4-11.5-2.3l-17.1-.9.5-8.6h8.3c5.1 0 21.2 0 23.2.7l-3.4 11.1zm4.3-17.3l-30.9.4V63.4l.7-.4s7.5-3.8 18.8-3.1c8.8.5 12.6 4.5 13.4 6l-2 54.5zm-41.5-54.9l-1.9 56.2-31 .4V62.8l.7-.4c.1 0 7.5-3.9 18.8-3.2 9.5.6 12.8 5.2 13.4 6.3zM220.8 123l-26.3.4-1.7-53.1.5-.3c.1-.1 6.9-3.6 17.2-2.9 6.2.4 9.6 2.7 11.2 4.3v22.4l-.9 29.2zM263 68l-1.9 54.2-31 .4V93.9L231 72c0-.9-.3-2-.9-3.1v-3.4l.7-.4s7.5-3.8 18.8-3.1c8.8.6 12.6 4.5 13.4 6zm-66 131.2c-9-6.6-5.5-19-5.7-33.5l-.1-20.4c.7.2 1.3.3 2 .3l29.4-.7c1 0 7.3.3 7.4.3l23.6-.2s-3.5 13.1 8.2 20c6.9 4.1 21.7 11 21.7 11l-23 20.6 5.1 6.1 35.7-31.3s-13.5-1.6-23.6-6.6c-10.1-5-14.8-9.9-14.8-9.9-3-3.9-.3-14.8 1.7-18.1l50.7 4.1c1.5.1 21.6 2.6 21.5 4.1l3.6 23.5c-.1 1.4-7.2 29.5-25.6 46.9l-1.1 18.3c0 2-1.6 3.6-3.7 3.6H205c-2 0-3.7-1.6-3.7-3.6l-4.3-34.5zm-4.1 68.2c-1.9 0-3.4-.2-3.4-.5v-23.7c0-.3 1.5-.5 3.4-.5H332c1.9 0 3.4.2 3.4.5v23.7c0 .3-1.5.5-3.4.5H192.9zm-46.2 57.4c-2.3-13.8-23.4-126.5-23.4-126.6l6.1-6.1 17.3 132.7zm9.9 93.3c-5.9-10.4-95.1-176.7-95.1-176.6l3.1-6.6 92 183.2zm6.1-10.3l-11.9-325L163.7 71l-1 336.8zm204.2 25.8l40-156.7 6.4 8.2S367 424.5 366.9 433.6zm18.2-108.8l17.3-132.7 6.1 6.1c-.1.1-21.1 112.8-23.4 126.6zm-10 93.3l92-183.2 3.1 6.6c0-.1-89.1 166.2-95.1 176.6zm-6-10.3l-1-336.8L381 82.8l-11.9 325z" fill="#FFF" fill-rule="nonzero"/>
    <text fill="#0D2559" font-family="ArialMT, Arial" font-size="141.3268">
      <tspan x="211.2461" y="400.8564">A</tspan>
    </text>
    <text fill="#0D2559" font-family="ArialMT, Arial" font-size="78.3562">
      <tspan x="194.4375" y="477.5303">50k</tspan>
    </text>
  </g>
</svg>
