<?xml version="1.0" encoding="UTF-8"?>
<svg width="21px" height="22px" viewBox="0 0 21 22" version="1.1" xmlns="http://www.w3.org/2000/svg" xmlns:xlink="http://www.w3.org/1999/xlink">
    <!-- Generator: Sketch 49.1 (51147) - http://www.bohemiancoding.com/sketch -->
    <title>noun_academy_648132</title>
    <desc>Created with Sketch.</desc>
    <defs></defs>
    <g id="Page-1" stroke="none" stroke-width="1" fill="none" fill-rule="evenodd">
        <g id="noun_academy_648132" fill="#000000" fill-rule="nonzero">
            <g id="Group">
                <rect id="Rectangle-path" x="2" y="14" width="1" height="1"></rect>
                <rect id="Rectangle-path" x="4" y="14" width="1" height="1"></rect>
                <rect id="Rectangle-path" x="6" y="14" width="1" height="1"></rect>
                <rect id="Rectangle-path" x="2" y="16" width="1" height="1"></rect>
                <rect id="Rectangle-path" x="4" y="16" width="1" height="1"></rect>
                <rect id="Rectangle-path" x="6" y="16" width="1" height="1"></rect>
                <rect id="Rectangle-path" x="9" y="11" width="1" height="2"></rect>
                <rect id="Rectangle-path" x="11" y="11" width="1" height="2"></rect>
                <rect id="Rectangle-path" x="9" y="8" width="1" height="2"></rect>
                <rect id="Rectangle-path" x="11" y="8" width="1" height="2"></rect>
                <rect id="Rectangle-path" x="14" y="14" width="1" height="1"></rect>
                <rect id="Rectangle-path" x="16" y="14" width="1" height="1"></rect>
                <rect id="Rectangle-path" x="18" y="14" width="1" height="1"></rect>
                <rect id="Rectangle-path" x="14" y="16" width="1" height="1"></rect>
                <rect id="Rectangle-path" x="16" y="16" width="1" height="1"></rect>
                <rect id="Rectangle-path" x="18" y="16" width="1" height="1"></rect>
                <path d="M16,8.7 L16,6.7 L11,3.4 L11,3 L14.4,3 L12.9,1.5 L14.3,0 L10,0 L10,3.5 L5,6.7 L5,8.7 L5,10 L0,10 L0,12 L0,13 L0,20 L0,22 L21,22 L21,20 L21,13 L21,12 L21,10 L16,10 L16,8.7 Z M11,1 L11.9,1 L11.4,1.5 L11.9,2 L11,2 L11,1 Z M15,7.3 L15,8.1 L11,5.5 L11,4.7 L15,7.3 Z M6,7.3 L10,4.7 L10,5.5 L6,8.1 L6,7.3 Z M1,11 L5,11 L5,12 L1,12 L1,11 Z M20,21 L1,21 L1,20 L8,20 L13,20 L20,20 L20,21 Z M12,19 L11,19 L11,15 L12,15 L12,19 Z M10,19 L9,19 L9,15 L10,15 L10,19 Z M20,19 L13,19 L13,14 L11,14 L10,14 L8,14 L8,19 L1,19 L1,13 L6,13 L6,11 L6,9.3 L10.5,6.4 L15,9.3 L15,11 L15,13 L20,13 L20,19 Z M20,11 L20,12 L16,12 L16,11 L20,11 Z" id="Shape"></path>
            </g>
        </g>
    </g>
</svg>