<?xml version="1.0" encoding="UTF-8"?>
<svg width="60px" height="60px" viewBox="0 0 60 60" version="1.1" xmlns="http://www.w3.org/2000/svg" xmlns:xlink="http://www.w3.org/1999/xlink">
    <!-- Generator: Sketch 49.1 (51147) - http://www.bohemiancoding.com/sketch -->
    <title>noun_education_516845</title>
    <desc>Created with Sketch.</desc>
    <defs></defs>
    <g id="Page-1" stroke="none" stroke-width="1" fill="none" fill-rule="evenodd">
        <g id="noun_education_516845" fill="#000000" fill-rule="nonzero">
            <path d="M49,38 L40.22,38 C39.671,37.391 38.883,37 38,37 C37.229,37 36.532,37.301 36,37.78 C35.468,37.3 34.771,37 34,37 C33.229,37 32.532,37.301 32,37.78 C31.468,37.3 30.771,37 30,37 C29.229,37 28.532,37.301 28,37.78 C27.468,37.3 26.771,37 26,37 C25.117,37 24.33,37.391 23.78,38 L7,38 C6.448,38 6,38.448 6,39 L6,46 C6,48.757 8.243,51 11,51 L19,51 L19,56 C19,56.265 19.105,56.52 19.293,56.707 L21,58.414 L21,60 L23,60 L23,58 C23,57.735 22.895,57.48 22.707,57.293 L21,55.586 L21,44.126 C22.723,44.571 24,46.139 24,48 L24,53 L26,53 L26,51 L39,51 L39,60 L41,60 L41,51 L53,51 C53.552,51 54,50.552 54,50 L54,43 C54,40.243 51.757,38 49,38 Z M38,39 C38.551,39 39,39.449 39,40 L39,44 C39,44.551 38.551,45 38,45 C37.449,45 37,44.551 37,44 L37,40 C37,39.449 37.449,39 38,39 Z M34,39 C34.551,39 35,39.449 35,40 L35,44 C35,44.551 34.551,45 34,45 C33.449,45 33,44.551 33,44 L33,40 C33,39.449 33.449,39 34,39 Z M30,39 C30.551,39 31,39.449 31,40 L31,44 C31,44.551 30.551,45 30,45 C29.449,45 29,44.551 29,44 L29,40 C29,39.449 29.449,39 30,39 Z M25,40 C25,39.449 25.449,39 26,39 C26.551,39 27,39.449 27,40 L27,44 C27,44.551 26.551,45 26,45 C25.449,45 25,44.551 25,44 L25,40 Z M20,42 C19.448,42 19,42.448 19,43 L19,49 L11,49 C9.346,49 8,47.654 8,46 L8,40 L23,40 L23,42.812 C22.116,42.299 21.093,42 20,42 Z M52,49 L26,49 L26,48 C26,47.655 25.964,47.32 25.908,46.991 C25.939,46.992 25.969,47 26,47 C26.771,47 27.468,46.699 28,46.22 C28.532,46.7 29.229,47 30,47 C30.771,47 31.468,46.699 32,46.22 C32.532,46.7 33.229,47 34,47 C34.771,47 35.468,46.699 36,46.22 C36.532,46.7 37.229,47 38,47 C39.654,47 41,45.654 41,44 L41,40 L49,40 C50.654,40 52,41.346 52,43 L52,49 Z" id="Shape"></path>
            <path d="M58,24.764 L58,9.792 L59.25,9.469 C59.692,9.354 60,8.956 60,8.5 C60,8.044 59.692,7.646 59.25,7.532 L30.25,0.032 C30.086,-0.01 29.913,-0.01 29.749,0.032 L0.749,7.532 C0.308,7.646 3.55271368e-15,8.044 3.55271368e-15,8.5 C3.55271368e-15,8.956 0.308,9.354 0.75,9.468 L14,12.895 L14,27 C14,27.459 14.312,27.859 14.757,27.97 L21.107,29.557 C20.981,29.811 20.964,30.111 21.076,30.382 C21.231,30.756 21.596,31 22,31 L24,31 L24,33 C24,33.404 24.244,33.769 24.617,33.924 C24.741,33.975 24.871,34 25,34 C25.26,34 25.516,33.898 25.707,33.707 L30,29.414 L34.293,33.707 C34.484,33.898 34.74,34 35,34 C35.129,34 35.259,33.975 35.383,33.924 C35.756,33.769 36,33.404 36,33 L36,31 L38,31 C38.404,31 38.769,30.756 38.924,30.383 C39.036,30.111 39.019,29.812 38.893,29.558 L45.243,27.971 C45.688,27.859 46,27.459 46,27 L46,12.895 L56,10.309 L56,24.764 L54.105,28.553 C53.964,28.835 53.964,29.166 54.105,29.448 L56.105,33.448 C56.275,33.786 56.621,34 57,34 C57.379,34 57.725,33.786 57.895,33.447 L59.895,29.447 C60.036,29.165 60.036,28.834 59.895,28.552 L58,24.764 Z M25,29 L24.414,29 L26.201,27.213 C26.693,27.794 27.3,28.271 28.006,28.58 L26,30.586 L26,30 C26,29.448 25.552,29 25,29 Z M30,27 C28.346,27 27,25.654 27,24 C27,22.346 28.346,21 30,21 C31.654,21 33,22.346 33,24 C33,25.654 31.654,27 30,27 Z M35,29 C34.448,29 34,29.448 34,30 L34,30.586 L31.994,28.58 C32.7,28.271 33.307,27.794 33.799,27.213 L35.586,29 L35,29 Z M44,26.219 L37.307,27.892 L34.785,25.37 C34.911,24.932 35,24.479 35,24 C35,21.243 32.757,19 30,19 C27.243,19 25,21.243 25,24 C25,24.479 25.089,24.932 25.215,25.371 L22.693,27.893 L16,26.219 L16,13.412 L29.75,16.968 C29.832,16.989 29.916,17 30,17 C30.084,17 30.168,16.989 30.25,16.968 L44,13.412 L44,26.219 Z M30,14.967 L4.994,8.5 L30,2.033 L55.006,8.5 L30,14.967 Z M57,30.764 L56.118,29 L57,27.236 L57.882,29 L57,30.764 Z" id="Shape"></path>
            <rect id="Rectangle-path" x="6" y="34" width="2" height="2"></rect>
            <rect id="Rectangle-path" x="10" y="34" width="2" height="2"></rect>
            <rect id="Rectangle-path" x="14" y="34" width="2" height="2"></rect>
        </g>
    </g>
</svg>