<?xml version="1.0" encoding="UTF-8"?>
<svg width="62px" height="75px" viewBox="0 0 62 75" version="1.1" xmlns="http://www.w3.org/2000/svg" xmlns:xlink="http://www.w3.org/1999/xlink">
    <!-- Generator: Sketch 49.1 (51147) - http://www.bohemiancoding.com/sketch -->
    <title>iconViagem</title>
    <desc>Created with Sketch.</desc>
    <defs></defs>
    <g id="Page-1" stroke="none" stroke-width="1" fill="none" fill-rule="evenodd">
        <g id="iconViagem" fill="#000000" fill-rule="nonzero">
            <path d="M32.9375,11.587434 L31.8133194,18.198184 L37.6585417,17.2646319 L39.9518958,10.4671285 L50.0885729,8.84802431 L50.1976111,8.0580625 C50.4606806,6.15005556 47.8098576,5.11080208 46.9388438,4.76926389 C45.5151042,4.21094097 43.8212986,3.81762847 43.8212986,3.81762847 L37.9675729,4.7526875 L31.1125903,0.0523125 L25.7407639,0.910302083 L30.1157465,6.00689583 L26.7063924,6.55144097 L22.8211667,3.61117708 L17.4347014,4.47153472 L21.9548889,13.3418403 L32.9375,11.587434 Z M36.0343785,15.3439236 L34.4391701,15.5987049 L35.1820938,11.2288889 L37.5502569,10.8506458 L36.0343785,15.3439236 Z M29.881309,2.42876389 L30.6036736,2.313375 L34.880059,5.24567361 L32.6107083,5.60820139 L29.881309,2.42876389 Z M22.2540174,5.88171181 L26.1391354,8.82186806 L43.7389549,6.01066319 C44.1037431,6.10258681 44.9250278,6.3220625 45.7874306,6.63550694 C46.3092639,6.82527431 46.7142014,7.00072569 47.0276458,7.15669444 L23.1617361,10.9688333 L20.6961597,6.13046528 L22.2540174,5.88171181 Z" id="Shape"></path>
            <path d="M4.23785069,51.8386736 L2.22059028,52.5902083 C2.47763194,53.2801736 2.7609375,53.9707847 3.06254167,54.6428819 L5.02662847,53.7615347 C4.74407639,53.1318472 4.47863889,52.4849375 4.23785069,51.8386736 Z" id="Shape"></path>
            <path d="M2.22457292,40.6147361 C2.22457292,40.2731979 2.2300625,39.9264931 2.24071875,39.5844167 L0.0890173611,39.5169271 C0.0776076389,39.8813924 0.0717951389,40.2507014 0.0717951389,40.6147361 C0.0717951389,40.9880278 0.0778229167,41.3657326 0.0897708333,41.7371944 L2.24136458,41.6679826 C2.23027778,41.3194479 2.22457292,40.9651007 2.22457292,40.6147361 Z" id="Shape"></path>
            <path d="M2.37505208,43.7461667 L0.232284722,43.9532639 C0.303326389,44.6881146 0.399232639,45.4292083 0.517204861,46.1559861 L2.64210417,45.8107882 C2.53155903,45.1297569 2.44168056,44.4349479 2.37505208,43.7461667 Z" id="Shape"></path>
            <path d="M5.93908333,55.6300382 L4.03635069,56.637 C4.3806875,57.2876771 4.75128819,57.9360938 5.13760417,58.5641667 L6.971125,57.4361111 C6.60902778,56.8475417 6.26178472,56.2398125 5.93908333,55.6300382 Z" id="Shape"></path>
            <path d="M8.11834028,59.172434 L6.36145833,60.4166319 C6.7870625,61.0174722 7.23817708,61.6129306 7.70253125,62.1863229 L9.3755625,60.8315799 C8.94027083,60.2940312 8.51725,59.735816 8.11834028,59.172434 Z" id="Shape"></path>
            <path d="M5.01973958,27.4832222 L3.05522222,26.6028438 C2.75307986,27.2769861 2.46945139,27.9698576 2.21208681,28.6620833 L4.22988542,29.4122188 C4.47099653,28.7638021 4.73675694,28.1147396 5.01973958,27.4832222 Z" id="Shape"></path>
            <path d="M9.37287153,20.4012292 L7.69973264,19.0465938 C7.23537847,19.6202014 6.78383333,20.2161979 6.35779861,20.8180069 L8.11489583,22.0618819 C8.51434375,21.4976389 8.93757986,20.9388854 9.37287153,20.4012292 Z" id="Shape"></path>
            <path d="M6.96681944,23.8005729 L5.13297569,22.6729479 C4.74612153,23.3020972 4.37509028,23.9518056 4.03032292,24.6038819 L5.93348611,25.6101979 C6.25651042,24.9990243 6.60418403,24.3902187 6.96681944,23.8005729 Z" id="Shape"></path>
            <path d="M12.195809,17.3405174 L10.7103924,15.7822292 C10.1763958,16.2912535 9.65230208,16.824066 9.15264236,17.3657049 L10.7351493,18.8252882 C11.2035937,18.3173403 11.6950729,17.8177882 12.195809,17.3405174 Z" id="Shape"></path>
            <path d="M3.56855208,31.3859931 L1.50608333,30.7690069 C1.29489583,31.4752257 1.10405208,32.1979132 0.939041667,32.9173715 L3.03735417,33.398625 C3.19192361,32.7244826 3.37060417,32.047434 3.56855208,31.3859931 Z" id="Shape"></path>
            <path d="M10.7373021,62.4065521 L9.15501042,63.8663507 C9.65510069,64.4083125 10.1791944,64.9410174 10.7128681,65.4496111 L12.1980694,63.8911076 C11.6976562,63.414375 11.2061771,62.9148229 10.7373021,62.4065521 Z" id="Shape"></path>
            <path d="M2.63855208,35.4412882 L0.513329861,35.0978125 C0.395680556,35.8251285 0.3003125,36.5663299 0.229916667,37.30075 L2.37279167,37.5063403 C2.43888194,36.8177743 2.52822222,36.1230729 2.63855208,35.4412882 Z" id="Shape"></path>
            <path d="M3.04262847,47.8534514 L0.944638889,48.3358889 C1.10997222,49.0544861 1.30124653,49.7771736 1.5131875,50.4839306 L3.57522569,49.8654375 C3.37663194,49.2034583 3.19741319,48.5265174 3.04262847,47.8534514 Z" id="Shape"></path>
            <path d="M23.9910938,73.316184 C24.6938681,73.5392118 25.413434,73.7418958 26.1299861,73.9186389 L26.6455764,71.8285069 C25.9743403,71.6629583 25.3003056,71.4730833 24.6422014,71.2643715 L23.9910938,73.316184 Z" id="Shape"></path>
            <path d="M15.3868715,14.6689201 L14.1142569,12.9325972 C13.5200903,13.3681042 12.932059,13.8290139 12.3665243,14.3025174 L13.7485,15.9531597 C14.2787292,15.5091493 14.8299479,15.0771944 15.3868715,14.6689201 Z" id="Shape"></path>
            <path d="M32.8174826,72.726 L32.7151181,74.8763021 C33.2642917,74.9024583 33.8218611,74.9156979 34.3727569,74.9156979 C34.5605868,74.9156979 34.7480938,74.914191 34.9352778,74.9111771 L34.9004028,72.7586146 C34.2097917,72.7699167 33.5080938,72.7588299 32.8174826,72.726 Z" id="Shape"></path>
            <path d="M28.3031076,74.3801944 C29.0277326,74.509684 29.7674271,74.6172153 30.5015243,74.6996667 L30.7417743,72.5603438 C30.0538542,72.483059 29.3607674,72.3824167 28.6817813,72.2611076 L28.3031076,74.3801944 Z" id="Shape"></path>
            <path d="M12.3696458,66.9298611 C12.9353958,67.4032569 13.5239653,67.8644896 14.1187778,68.3003194 L15.3911771,66.5637813 C14.8335,66.155184 14.2817431,65.7227986 13.7514063,65.2787882 L12.3696458,66.9298611 Z" id="Shape"></path>
            <path d="M18.893316,12.4315382 L17.8551389,10.5455972 C17.2102743,10.9005903 16.5679931,11.2817396 15.9461632,11.6784965 L17.1041424,13.4932882 C17.6870069,13.1213958 18.2889236,12.7641424 18.893316,12.4315382 Z" id="Shape"></path>
            <path d="M19.8481806,71.6976181 C20.5178021,72.0109549 21.2057222,72.3059931 21.8928889,72.5744444 L22.6762847,70.5692396 C22.0326042,70.3176875 21.3880625,70.0413785 20.7606354,69.7476319 L19.8481806,71.6976181 Z" id="Shape"></path>
            <path d="M15.9532674,69.5554965 C16.5758507,69.9524688 17.2192083,70.3340486 17.8656875,70.6895799 L18.9031111,68.8032083 C18.2974271,68.470066 17.694434,68.1124896 17.1109236,67.7403819 L15.9532674,69.5554965 Z" id="Shape"></path>
            <path d="M27.9898785,42.3025139 C28.1881493,42.5604167 28.6521806,42.9933403 29.5327743,42.9933403 C31.7023438,42.9933403 35.9093021,40.1235799 38.0816701,36.4237083 C39.1609653,34.5852361 39.9803125,34.5852361 40.3739479,34.5852361 C40.8083785,34.5852361 41.3088993,34.7029931 41.8386979,34.8277465 C42.4938958,34.9818854 43.2363889,35.156691 44.0475556,35.1565833 C44.7962917,35.1564757 45.4892708,35.0103021 46.1658889,34.709559 C47.2322674,34.235625 47.9307361,33.5733229 48.2415972,32.7411667 C48.7571875,31.3611285 48.0844444,29.9225347 47.4909236,28.6533646 C47.1837222,27.9965521 46.8935278,27.3761215 46.7831979,26.8365278 C46.5284167,25.5908229 45.6806528,24.1058368 43.0891389,24.1058368 C42.2742049,24.1058368 41.4356979,24.2456597 40.6958958,24.3689062 L40.6542396,24.3759028 C40.5126944,24.3994757 40.3867569,24.4114236 40.2797639,24.4114236 C40.1082951,24.4114236 40.0490938,24.3809618 40.048125,24.3809618 C39.9351042,24.273 39.8486701,23.7029444 39.7970035,23.362375 C39.7788125,23.2424653 39.7604063,23.1213715 39.7402778,23.0002778 C39.4993819,21.5547951 38.8919757,20.0369792 36.2140278,19.7393576 C36.0780799,19.7242882 35.9415938,19.7166458 35.8081215,19.7166458 C34.0149653,19.7166458 32.7531146,20.9730069 30.4624514,23.253875 C29.7667813,23.9465312 28.9783264,24.7316493 28.0353021,25.6249444 C26.2477431,27.3184271 25.5816736,28.7405521 25.9990972,29.9724792 C26.3141563,30.9020486 27.1385625,31.360375 27.7912847,31.5827569 C27.9792222,33.3653646 28.3714583,37.9525035 27.7354201,40.3374583 C27.5208958,41.1423819 27.6064688,41.8033924 27.9898785,42.3025139 Z M28.0378854,29.2813299 C28.0360556,29.2760556 27.9341215,28.6863021 29.5157674,27.1878611 C30.4782743,26.2759444 31.2768472,25.4809236 31.9813438,24.779441 C33.8657778,22.9030799 34.9037396,21.8694236 35.8080139,21.8694236 C35.863125,21.8694236 35.9180208,21.8725451 35.9761458,21.8790035 C37.3396076,22.0304514 37.4643611,22.4407708 37.6165625,23.3541944 C37.6350764,23.4649549 37.6517604,23.5757153 37.6684444,23.6852917 C37.8210764,24.6913924 38.1052431,26.5642014 40.2796563,26.5642014 C40.5049444,26.5642014 40.7499306,26.5423507 41.0080486,26.4992951 L41.0499201,26.4924062 C41.7394549,26.3774479 42.4523472,26.2586146 43.0891389,26.2586146 C44.3622917,26.2586146 44.5654063,26.7361007 44.6742292,27.2679444 C44.8356875,28.0572604 45.1942326,28.8239722 45.5409375,29.5653889 C45.9752604,30.4939896 46.4243299,31.4543437 46.2249826,31.9876944 C46.1240174,32.2579757 45.8100347,32.5117882 45.2915382,32.7422431 C44.8902604,32.9206007 44.4950104,33.0036979 44.0474479,33.0036979 C43.4862188,33.0036979 42.9255278,32.8717326 42.3318993,32.732125 C41.7058715,32.5847674 41.058316,32.4324583 40.3740556,32.4324583 C38.7057604,32.4324583 37.3873993,33.3542778 36.2252222,35.3336493 C34.4975104,38.2764965 31.2533819,40.4868611 29.8391146,40.8019201 C30.7062535,37.3810486 29.8791563,30.8528576 29.8432049,30.5742882 L29.7412708,29.7313681 L28.8953368,29.6423507 C28.5068681,29.596066 28.0759896,29.3965035 28.0378854,29.2813299 Z" id="Shape"></path>
            <path d="M16.3801632,41.1320486 L16.0926597,40.8690868 L15.7100035,40.8426076 C15.7100035,40.8426076 15.6311042,40.8372257 15.4906354,40.8372257 C13.3472222,40.8372257 10.8534444,41.8544132 10.2825278,44.7093194 C9.59514583,48.1459063 11.0748576,49.5025868 13.7609861,51.9655799 C14.1236215,52.298184 14.4987431,52.6419826 14.9073403,53.0250694 C15.5090417,53.5892049 15.9680139,54.0509757 16.3368924,54.4221146 C18.2164826,56.3128993 18.538,56.3689792 22.1883576,56.5148299 C22.4162292,56.5239792 22.6590625,56.5336667 22.9181493,56.5444306 C23.3032812,56.5604688 23.6356701,56.5683264 23.9344757,56.5683264 C25.2259271,56.5683264 26.1300938,56.4347465 26.647191,55.7695382 C27.1585833,55.1117569 26.9672014,54.3600069 26.8134931,53.7561528 C26.6548333,53.1330313 26.4750764,52.4268125 26.7827083,51.503809 C27.0586944,50.6758507 27.0154236,49.9459514 26.6541875,49.3347778 C25.969066,48.1756146 24.459,47.8985521 22.7104062,47.5777882 C21.1855938,47.2980347 19.4573437,46.9809306 18.4216424,46.0553438 C18.0495347,45.7227396 17.8759132,45.5120903 17.7971215,45.398316 C17.8002431,45.3933646 17.8034722,45.3886285 17.8063785,45.384 C18.6641528,44.0647778 18.2775139,42.9123958 16.3801632,41.1320486 Z M22.3219375,49.6951528 C23.1796042,49.8525208 24.6152917,50.1159132 24.8008611,50.4300035 C24.8097951,50.4451806 24.8272326,50.5626146 24.7403681,50.8229931 C24.2328507,52.3455451 24.5423125,53.5610035 24.7271285,54.2872431 C24.7346632,54.3169514 24.7428437,54.3487049 24.7510243,54.3812118 C24.5733125,54.4000486 24.3123958,54.415441 23.9344757,54.415441 C23.665809,54.415441 23.3626979,54.4083368 23.0078125,54.3934826 C22.747434,54.3826111 22.5034167,54.3729236 22.2743611,54.3637743 C20.6818437,54.3000521 19.8045868,54.2649618 19.3134306,54.095 C18.9260382,53.9608819 18.6567257,53.7021181 17.8636424,52.904191 C17.4829236,52.5212118 17.0090972,52.0445868 16.379625,51.4545104 C15.962309,51.0631354 15.5656597,50.6995312 15.2158333,50.3787674 C12.5154965,47.9028576 11.9590035,47.3030938 12.3933264,45.1313715 C12.7404618,43.3959097 14.31425,43.0504965 15.2129271,42.9980764 C15.8725382,43.6588715 16.0358264,43.9868472 16.0751146,44.0942708 C16.0546632,44.1287153 16.0251701,44.1741389 16.0013819,44.2106285 C15.2510313,45.3647326 15.5365972,46.3642674 16.9870312,47.6604549 C18.4738472,48.9890417 20.6075729,49.3806319 22.3219375,49.6951528 Z" id="Shape"></path>
            <path d="M53.8575486,21.1300521 C50.3289306,17.601434 46.0112118,15.1493125 41.3028715,13.9348229 L40.5147396,15.9643542 C46.514316,17.4596736 51.6764618,21.0938854 55.142434,26.006309 C54.9197292,27.2810764 54.2263194,31.0389653 53.3725278,33.6007708 C52.7315382,35.5234167 51.1184618,35.9774375 49.6951528,36.3780694 C49.1898958,36.5202604 48.7125174,36.6545938 48.3151146,36.8534028 C46.5377813,37.7420694 42.4621424,40.1564097 42.9985069,43.3750278 C43.1512465,44.2910347 43.553816,44.9062986 44.1951285,45.2038125 C45.3681771,45.7481424 46.7030069,44.9531215 48.2485938,44.0329167 C48.923059,43.6314236 49.6204514,43.2162604 50.32075,42.8957118 C50.3305451,42.891191 51.4156528,42.6391007 54.4516076,46.6836319 C55.7850382,48.4598889 56.947,50.3462604 57.4598993,51.2050035 C57.0006042,52.2021701 56.4784479,53.1643542 55.8988125,54.0871424 L51.7059549,51.9396389 C51.3268507,51.7217778 48.8817257,50.3385104 47.5344097,50.1029965 C46.6700694,49.9516562 45.5722604,50.3271007 43.8517604,50.9518368 C42.7449097,51.3536528 41.4903785,51.8091806 40.8310903,51.8091806 C39.6648229,51.8091806 38.5230972,52.2498542 37.5291597,53.0834097 C36.4774201,53.9654028 35.653875,55.2256389 35.0813438,56.8291354 C34.3293785,58.9347674 34.1796528,58.976316 31.6804931,59.6722014 C31.3060174,59.7763958 30.8818125,59.8944757 30.4092778,60.0334375 C27.7442465,60.8172639 26.5334167,62.9461458 26.0916667,64.6303715 C16.138191,61.1885104 8.96997917,51.7236076 8.96997917,40.6147361 C8.96997917,37.849816 9.41420486,35.1869375 10.2347361,32.693375 C11.3399722,33.2682743 13.0209687,33.9940833 14.4658056,33.9940833 C14.7305972,33.9940833 14.9874236,33.9696493 15.2313333,33.9155069 C16.7973715,33.5675104 21.9781389,32.2421528 22.8945764,29.7983194 C23.2691597,28.7993229 23.3851944,27.4661076 23.4972465,26.176809 C23.5968125,25.0318542 23.6997153,23.847934 23.9709653,23.1247083 C24.4127153,21.946816 25.8994236,20.572375 26.4341736,20.1427882 L26.8381424,19.8196563 L26.8381424,16.3556215 C27.9433785,16.0117153 29.0804757,15.7404653 30.2441597,15.5494063 L30.551684,13.3224653 C24.6405868,14.1375069 19.1807118,16.8375208 14.8880729,21.1301597 C9.68351736,26.3347153 6.81730903,33.2546042 6.81730903,40.6149514 C6.81730903,47.9752986 9.68351736,54.8950799 14.8880729,60.0997431 C20.0926285,65.3042986 27.0124097,68.1705069 34.3728646,68.1705069 C41.7333194,68.1705069 48.6529931,65.304191 53.8576563,60.0997431 C59.0622118,54.8950799 61.9284201,47.9752986 61.9284201,40.6149514 C61.9284201,33.2546042 59.0619965,26.3346076 53.8575486,21.1300521 Z M24.6852569,17.1348194 L24.6852569,18.8042986 C23.9633229,19.4437813 22.5235451,20.8529896 21.9552118,22.3687604 C21.5806285,23.3677569 21.4645937,24.7009722 21.3525417,25.9902708 C21.2529757,27.1352257 21.1500729,28.3191458 20.8788229,29.0423715 C20.5654861,29.8778646 17.7653681,31.1471424 14.7642882,31.8140729 C13.9210451,32.0011493 12.2669583,31.3478889 11.0008021,30.6643819 C13.610184,24.5593194 18.5449965,19.6771424 24.6852569,17.1348194 Z M56.1841632,45.4055278 C53.3040694,41.5650799 51.1558125,40.1456458 49.4247639,40.938191 C48.6189792,41.3071771 47.8371979,41.7725 47.1474479,42.1830347 C46.5168993,42.5584792 45.6000313,43.104316 45.1632326,43.2095868 C45.1497778,43.1627639 45.1352465,43.1009792 45.1220069,43.0211111 C44.8762674,41.5464583 47.2070799,39.8141181 49.2776215,38.7788472 C49.4923611,38.6715313 49.8741563,38.564 50.2782326,38.4502257 C51.8246806,38.0150417 54.4129653,37.286434 55.4147604,34.2814792 C55.9842778,32.5729271 56.4752188,30.4242396 56.8192326,28.730434 C58.7056042,32.2784271 59.7755347,36.3237118 59.7755347,40.6147361 C59.7755347,43.4441319 59.3101042,46.16675 58.4525451,48.7105799 C57.8507361,47.7623889 57.0587292,46.5716875 56.1841632,45.4055278 Z M34.3727569,66.0175139 C32.2298819,66.0175139 30.1484687,65.7496007 28.1593021,65.2476806 C28.3956771,64.2592326 29.074125,62.6701597 31.0167917,62.0988125 C31.4742569,61.9642639 31.8906042,61.8483368 32.2578681,61.7460799 C35.0866181,60.9585938 36.0327639,60.5657118 37.1086146,57.5532222 C38.0543299,54.9054132 39.6515833,53.962066 40.8310903,53.962066 C41.8691597,53.962066 43.2505972,53.4605764 44.5865035,52.9754479 C45.4622535,52.6575903 46.7853507,52.1775208 47.163809,52.2238056 C47.9227708,52.3564167 49.7072083,53.2719931 50.6537847,53.8180451 L54.6678542,55.8751319 C50.0277569,62.0304618 42.6573993,66.0175139 34.3727569,66.0175139 Z" id="Shape"></path>
        </g>
    </g>
</svg>