<?xml version="1.0" encoding="UTF-8"?>
<svg width="87px" height="87px" viewBox="0 0 87 87" version="1.1" xmlns="http://www.w3.org/2000/svg" xmlns:xlink="http://www.w3.org/1999/xlink">
    <!-- Generator: Sketch 49.1 (51147) - http://www.bohemiancoding.com/sketch -->
    <title>noun_School_1361907</title>
    <desc>Created with Sketch.</desc>
    <defs></defs>
    <g id="Page-1" stroke="none" stroke-width="1" fill="none" fill-rule="evenodd">
        <g id="noun_School_1361907" fill="#000000" fill-rule="nonzero">
            <g id="Group">
                <path d="M71.5,39.25 L71.5,26.019 L44.168,13.946 L44.169,0.583 L32.469,0.583 L32.469,7.75 L41.669,7.75 L41.669,14.417 L15,26.014 L15,39.25 L0.75,39.25 L0.75,79.917 L31.629,79.917 L31.629,82.995 L56.871,82.836 L56.871,79.917 L86.5,79.917 L86.5,39.25 L71.5,39.25 Z M34.969,3.083 L41.669,3.083 L41.669,5.25 L34.969,5.25 L34.969,3.083 Z M3.25,71.25 L31.629,71.25 L31.629,72.487 L3.25,72.487 L3.25,71.25 Z M34.129,72.487 L34.129,46.75 L43,46.75 L43,72.487 L34.129,72.487 Z M45.5,46.75 L54.371,46.75 L54.371,72.487 L45.5,72.487 L45.5,46.75 Z M56.871,71.25 L84,71.25 L84,72.487 L56.871,72.487 L56.871,71.25 Z M64.688,39.25 L59.464,39.25 L59.464,34.346 C59.464,32.906 60.636,31.734 62.076,31.734 C63.515,31.734 64.687,32.906 64.687,34.346 L64.687,39.25 L64.688,39.25 Z M62.076,29.234 C59.257,29.234 56.964,31.527 56.964,34.346 L56.964,39.25 L54.637,39.25 L54.637,34.346 C54.637,31.527 52.344,29.234 49.526,29.234 C46.708,29.234 44.415,31.527 44.415,34.346 L44.415,39.25 L42.088,39.25 L42.088,34.346 C42.088,31.527 39.795,29.234 36.976,29.234 C34.158,29.234 31.865,31.527 31.865,34.346 L31.865,39.25 L29.538,39.25 L29.538,34.346 C29.538,31.527 27.245,29.234 24.426,29.234 C21.607,29.234 19.314,31.527 19.314,34.346 L19.314,39.25 L17.5,39.25 L17.5,28.083 L69,28.083 L69,39.25 L67.187,39.25 L67.187,34.346 C67.188,31.527 64.895,29.234 62.076,29.234 Z M52.137,39.25 L46.914,39.25 L46.914,34.346 C46.914,32.906 48.086,31.734 49.525,31.734 C50.964,31.734 52.136,32.906 52.136,34.346 L52.136,39.25 L52.137,39.25 Z M39.587,39.25 L34.363,39.25 L34.363,34.346 C34.363,32.906 35.534,31.734 36.974,31.734 C38.414,31.734 39.586,32.906 39.586,34.346 L39.586,39.25 L39.587,39.25 Z M27.037,39.25 L21.813,39.25 L21.813,34.346 C21.813,32.906 22.985,31.734 24.425,31.734 C25.865,31.734 27.037,32.906 27.037,34.346 L27.037,39.25 Z M58.498,25.583 L43.237,19.267 L28.739,25.583 L22.258,25.583 L43.457,16.364 L64.326,25.583 L58.498,25.583 Z M51.962,25.583 L34.999,25.583 L43.263,21.982 L51.962,25.583 Z M84,41.75 L84,68.75 L56.871,68.75 L56.871,44.25 L31.629,44.25 L31.629,68.75 L3.25,68.75 L3.25,41.75 L84,41.75 Z M3.25,77.417 L3.25,74.987 L31.629,74.987 L31.629,77.417 L3.25,77.417 Z M34.129,80.479 L34.129,74.987 L54.371,74.987 L54.371,80.351 L34.129,80.479 Z M84,77.417 L56.871,77.417 L56.871,74.987 L84,74.987 L84,77.417 Z" id="Shape"></path>
                <path d="M16.917,44.25 L4.917,44.25 L4.917,55.083 L16.917,55.083 L16.917,44.25 Z M14.417,52.583 L7.417,52.583 L7.417,46.75 L14.417,46.75 L14.417,52.583 Z" id="Shape"></path>
                <path d="M29.75,44.25 L17.75,44.25 L17.75,55.083 L29.75,55.083 L29.75,44.25 Z M27.25,52.583 L20.25,52.583 L20.25,46.75 L27.25,46.75 L27.25,52.583 Z" id="Shape"></path>
                <path d="M16.917,55.868 L4.917,55.868 L4.917,66.701 L16.917,66.701 L16.917,55.868 Z M14.417,64.201 L7.417,64.201 L7.417,58.368 L14.417,58.368 L14.417,64.201 Z" id="Shape"></path>
                <path d="M29.75,55.868 L17.75,55.868 L17.75,66.701 L29.75,66.701 L29.75,55.868 Z M27.25,64.201 L20.25,64.201 L20.25,58.368 L27.25,58.368 L27.25,64.201 Z" id="Shape"></path>
                <path d="M69.834,44.25 L57.834,44.25 L57.834,55.083 L69.834,55.083 L69.834,44.25 Z M67.334,52.583 L60.334,52.583 L60.334,46.75 L67.334,46.75 L67.334,52.583 Z" id="Shape"></path>
                <path d="M82.667,44.25 L70.667,44.25 L70.667,55.083 L82.667,55.083 L82.667,44.25 Z M80.167,52.583 L73.167,52.583 L73.167,46.75 L80.167,46.75 L80.167,52.583 Z" id="Shape"></path>
                <path d="M69.834,55.868 L57.834,55.868 L57.834,66.701 L69.834,66.701 L69.834,55.868 Z M67.334,64.201 L60.334,64.201 L60.334,58.368 L67.334,58.368 L67.334,64.201 Z" id="Shape"></path>
                <path d="M82.667,55.868 L70.667,55.868 L70.667,66.701 L82.667,66.701 L82.667,55.868 Z M80.167,64.201 L73.167,64.201 L73.167,58.368 L80.167,58.368 L80.167,64.201 Z" id="Shape"></path>
                <rect id="Rectangle-path" x="39.587" y="57.75" width="2.5" height="2.375"></rect>
                <rect id="Rectangle-path" x="46.25" y="57.75" width="2.5" height="2.375"></rect>
                <rect id="Rectangle-path" x="2" y="83.631" width="5.25" height="2.5"></rect>
                <rect id="Rectangle-path" x="9.625" y="83.631" width="18.875" height="2.5"></rect>
                <rect id="Rectangle-path" x="59.875" y="83.631" width="17.625" height="2.5"></rect>
                <rect id="Rectangle-path" x="79.5" y="83.631" width="5.75" height="2.5"></rect>
            </g>
        </g>
    </g>
</svg>