<?xml version="1.0" encoding="UTF-8"?>
<svg width="62px" height="59px" viewBox="0 0 62 59" version="1.1" xmlns="http://www.w3.org/2000/svg" xmlns:xlink="http://www.w3.org/1999/xlink">
    <!-- Generator: Sketch 49.1 (51147) - http://www.bohemiancoding.com/sketch -->
    <title>noun_spaceship_1962979</title>
    <desc>Created with Sketch.</desc>
    <defs></defs>
    <g id="Page-1" stroke="none" stroke-width="1" fill="none" fill-rule="evenodd">
        <g id="noun_spaceship_1962979" transform="translate(0.000000, -1.000000)" fill="#000000" fill-rule="nonzero">
            <g id="Group">
                <path d="M42.992,26.6 C42.835,17 36.988,1 31,1 C25.012,1 19.165,17 19.008,26.6 L8.263,38.324 C8.06474008,38.5403365 7.97150596,38.8328357 8.008,39.124 L10.008,55.124 C10.0705244,55.6243376 10.4957709,55.9998577 11,56 L13,56 C13.4934488,55.9998122 13.9129958,55.6397152 13.988,55.152 L15.893,42.776 L24.85,40.089 C25.072,40.239 25.297,40.382 25.525,40.514 L23.143,44.485 C22.9628517,44.781535 22.9507272,45.1506423 23.1110268,45.4583604 C23.2713265,45.7660786 23.5807511,45.9676812 23.927,45.99 L21.219,49.375 C20.9786603,49.6751841 20.9317409,50.0865903 21.0983181,50.4331819 C21.2648953,50.7797734 21.6154566,51.0001443 22,51 L24.523,51 L23.071,54.629 C22.9478969,54.9371337 22.9856536,55.2862637 23.1717865,55.560955 C23.3579194,55.8356463 23.6681857,56.0001218 24,56 L28.382,56 L30.105,59.447 C30.2741635,59.7864145 30.6207659,60.0009339 31,60.0009339 C31.3792341,60.0009339 31.7258365,59.7864145 31.895,59.447 L33.618,56 L38,56 C38.3318143,56.0001218 38.6420806,55.8356463 38.8282135,55.560955 C39.0143464,55.2862637 39.0521031,54.9371337 38.929,54.629 L37.477,51 L39,51 C39.3603432,50.9999315 39.6927828,50.8059998 39.8702014,50.4923601 C40.04762,50.1787205 40.0425768,49.7938826 39.857,49.485 L37.766,46 L38,46 C38.3603432,45.9999315 38.6927828,45.8059998 38.8702014,45.4923601 C39.04762,45.1787205 39.0425768,44.7938826 38.857,44.485 L36.475,40.514 C36.703,40.382 36.928,40.239 37.15,40.089 L46.107,42.776 L48.012,55.152 C48.0870042,55.6397152 48.5065512,55.9998122 49,56 L51,56 C51.5042291,55.9998577 51.9294756,55.6243376 51.992,55.124 L53.992,39.124 C54.028494,38.8328357 53.9352599,38.5403365 53.737,38.324 L42.992,26.6 Z M31,3 C32.659,3 34.651,5.449 36.42,9 L25.58,9 C27.349,5.449 29.341,3 31,3 Z M24.658,11 L37.342,11 C39.54954,16.0581879 40.7902598,21.4850651 41,27 C41,35.932 35.816,40 31,40 C26.184,40 21,35.932 21,27 C21.2097402,21.4850651 22.45046,16.0581879 24.658,11 Z M14.713,41.042 C14.3437824,41.1532321 14.0714168,41.4668416 14.013,41.848 L12.142,54 L11.883,54 L10.05,39.335 L19.137,29.421 C19.3637053,32.8151655 20.7330662,36.0325468 23.022,38.549 L14.713,41.042 Z M37.233,49 L36,49 C35.6681857,48.9998782 35.3579194,49.1643537 35.1717865,49.439045 C34.9856536,49.7137363 34.9478969,50.0628663 35.071,50.371 L36.523,54 L33,54 C32.6191744,53.9979212 32.2702259,54.2123306 32.1,54.553 L31,56.764 L29.9,54.553 C29.7297741,54.2123306 29.3808256,53.9979212 29,54 L25.477,54 L26.929,50.371 C27.0521031,50.0628663 27.0143464,49.7137363 26.8282135,49.439045 C26.6420806,49.1643537 26.3318143,48.9998782 26,49 L24.081,49 L26.481,46 L28.613,46 L28.052,47.684 C27.9542065,47.9766799 27.9970155,48.2981161 28.168,48.555 L30.168,51.555 C30.3534732,51.8331551 30.6656789,52.0002244 31,52.0002244 C31.3343211,52.0002244 31.6465268,51.8331551 31.832,51.555 L33.832,48.555 C34.0029845,48.2981161 34.0457935,47.9766799 33.948,47.684 L33.387,46 L35.434,46 L37.233,49 Z M31.279,46 L31.896,47.853 L31,49.2 L30.1,47.856 L30.721,46 L31.279,46 Z M36.233,44 L25.767,44 L27.354,41.353 C29.7081777,42.2153669 32.2918223,42.2153669 34.646,41.353 L36.233,44 Z M50.117,54 L49.858,54 L47.988,41.848 C47.9295832,41.4668416 47.6572176,41.1532321 47.288,41.042 L38.979,38.549 C41.2679338,36.0325468 42.6372947,32.8151655 42.864,29.421 L51.951,39.335 L50.117,54 Z" id="Shape"></path>
                <path d="M31,27 C34.8659932,27 38,23.8659932 38,20 C38,16.1340068 34.8659932,13 31,13 C27.1340068,13 24,16.1340068 24,20 C24.0049584,23.8639376 27.1360624,26.9950416 31,27 Z M31,15 C33.7614237,15 36,17.2385763 36,20 C36,22.7614237 33.7614237,25 31,25 C28.2385763,25 26,22.7614237 26,20 C26.0033061,17.2399468 28.2399468,15.0033061 31,15 Z" id="Shape"></path>
                <path d="M27.147,37.055 L28.38,35.479 C25.9508026,33.5395676 24.5254136,30.608336 24.5,27.5 L22.5,27.5 C22.5318745,31.2220928 24.238789,34.7317911 27.147,37.055 Z" id="Shape"></path>
                <rect id="Rectangle-path" transform="translate(30.196117, 37.981729) rotate(-61.904000) translate(-30.196117, -37.981729) " x="29.1961167" y="36.993729" width="2" height="1.976"></rect>
                <path d="M33.41,20.335 L35.4,20.5 C35.4905325,19.3622027 35.1056938,18.237735 34.337,17.394 C33.561176,16.5578621 32.4774864,16.0748977 31.337,16.057 L31.321,18.057 C31.9071797,18.0620155 32.4648525,18.3106612 32.8603528,18.7433404 C33.2558531,19.1760196 33.4535288,19.7537288 33.406,20.338 L33.41,20.335 Z" id="Shape"></path>
                <path d="M57,13 L48,13 C46.3431458,13.0110457 44.9910457,11.6768542 44.98,10.02 C44.9689543,8.36314575 46.3031458,7.01104569 47.96,7 C49.024,7.045 49.347,7.056 49.691,6.725 C49.8883141,6.5354149 49.9998871,6.2736336 50,6 C50.0023358,4.63867554 50.9209981,3.44956933 52.2376359,3.1036292 C53.5542737,2.75768906 54.9387992,3.34164397 55.61,4.526 C55.8071611,4.87843824 56.1982915,5.07617857 56.599,5.026 C56.7319977,5.00902156 56.8659233,5.00033811 57,5 C58.2602622,4.99475267 59.4480406,5.58864186 60.2,6.6 L61.8,5.4 C60.671373,3.88378375 58.8901492,2.99317186 57,3 C55.8191642,1.42467468 53.8237998,0.688934343 51.9029411,1.12058798 C49.9820824,1.55224163 48.4933311,3.07092932 48.1,5 L48,5 C45.2385763,5 43,7.23857625 43,10 C43,12.7614237 45.2385763,15 48,15 L57,15 C58.8901117,15.0066679 60.6712673,14.1160901 61.8,12.6 L60.2,11.4 C59.447406,12.4106007 58.260037,13.0042852 57,13 Z" id="Shape"></path>
                <path d="M11,26 L1,26 L1,28 L11,28 C12.786328,27.993212 14.4333417,27.033945 15.3206271,25.4835456 C16.2079125,23.9331461 16.2006698,22.0271569 15.3016271,20.4835455 C14.4025845,18.9399341 12.748328,17.9932119 10.962,18 L10.902,18 C10.5074637,16.0669655 9.01313477,14.5466539 7.08718776,14.1188577 C5.16124075,13.6910616 3.16379939,14.4357724 1.988,16.02 L1.02,16 L0.98,18 L2.5,18.03 L2.52,18.03 C2.87797084,18.0307064 3.20901493,17.8400129 3.388,17.53 C4.05792545,16.3441533 5.44262964,15.7584025 6.7601756,16.1035187 C8.07772156,16.448635 8.9974525,17.6380066 9,19 C9.00038467,19.2732863 9.11193593,19.5346556 9.309,19.724 C9.653,20.056 9.976,20.041 11,20 C12.6568542,20 14,21.3431458 14,23 C14,24.6568542 12.6568542,26 11,26 Z" id="Shape"></path>
            </g>
        </g>
    </g>
</svg>