<?xml version="1.0" encoding="UTF-8"?>
<svg width="82px" height="90px" viewBox="0 0 82 90" version="1.1" xmlns="http://www.w3.org/2000/svg" xmlns:xlink="http://www.w3.org/1999/xlink">
    <!-- Generator: Sketch 49.1 (51147) - http://www.bohemiancoding.com/sketch -->
    <title>noun_Castle_262417</title>
    <desc>Created with Sketch.</desc>
    <defs></defs>
    <g id="Page-1" stroke="none" stroke-width="1" fill="none" fill-rule="evenodd">
        <g id="noun_Castle_262417" fill="#000000" fill-rule="nonzero">
            <path d="M73.32,85.215 L71.068,85.215 C69.526,80.433 68.954,74.253 68.753,71.14 C69.607,70.912 70.24,70.141 70.24,69.215 L70.24,64.173 C70.24,63.21 69.559,62.407 68.653,62.217 L68.653,54.279 C69.322,54.135 69.889,53.675 70.125,53.012 C70.408,52.214 70.158,51.324 69.501,50.79 C63.41,45.843 60.058,37.741 59.436,36.136 L59.436,34.014 C60.078,34.146 60.711,34.227 61.332,34.227 C65.623,34.227 67.831,31.09 67.923,30.956 C68.324,30.373 68.264,29.59 67.777,29.076 C67.293,28.563 66.514,28.456 65.909,28.824 C65.204,29.252 64.571,29.451 63.916,29.452 C63.109,29.452 62.296,29.139 61.436,28.808 C60.244,28.35 58.847,27.825 57.24,28.036 C57.01,28.066 56.808,28.161 56.625,28.282 C55.926,28.594 55.437,29.292 55.437,30.107 L55.437,36.139 C55.119,36.958 54.141,39.332 52.506,42.119 L52.506,41.443 C52.506,40.339 51.61,39.443 50.506,39.443 L49.41,39.443 L49.41,37.352 C49.668,37.469 49.942,37.548 50.228,37.548 C50.514,37.548 50.804,37.486 51.08,37.357 C52.079,36.886 52.508,35.695 52.037,34.695 C50.08,30.543 45.003,18.515 45.003,12.798 L45.003,12.041 C45.645,12.173 46.278,12.254 46.899,12.254 C51.19,12.254 53.398,9.117 53.49,8.983 C53.891,8.4 53.831,7.617 53.344,7.103 C52.86,6.59 52.081,6.484 51.476,6.851 C50.771,7.279 50.138,7.478 49.483,7.479 C48.676,7.479 47.863,7.166 47.003,6.835 C45.811,6.377 44.414,5.852 42.807,6.063 C42.577,6.093 42.375,6.188 42.192,6.309 C41.493,6.621 41.004,7.319 41.004,8.134 L41.004,12.798 C41.004,19.681 34.041,34.547 33.97,34.695 C33.499,35.695 33.928,36.886 34.927,37.357 C35.202,37.487 35.492,37.548 35.778,37.548 C36.065,37.548 36.339,37.468 36.597,37.352 L36.597,39.443 L35.502,39.443 C34.398,39.443 33.502,40.339 33.502,41.443 L33.502,46.464 L31.036,46.464 C30.241,46.464 29.521,46.935 29.203,47.664 C29.194,47.685 28.451,49.311 27.064,50.602 C24.349,46.856 22.647,43.212 22.16,42.112 L22.16,40.037 C22.801,40.169 23.435,40.25 24.056,40.25 C24.056,40.25 24.056,40.25 24.057,40.25 C28.348,40.25 30.556,37.113 30.648,36.979 C31.049,36.396 30.988,35.613 30.502,35.099 C30.016,34.585 29.236,34.48 28.633,34.847 C27.928,35.275 27.295,35.474 26.64,35.475 C25.833,35.475 25.02,35.162 24.159,34.831 C22.966,34.373 21.565,33.846 19.964,34.059 C19.734,34.089 19.532,34.184 19.349,34.304 C18.649,34.616 18.16,35.314 18.16,36.129 L18.16,42.114 C17.51,43.587 14.744,49.502 10.288,54.212 C9.739,54.793 9.588,55.644 9.904,56.378 C10.164,56.981 10.702,57.393 11.328,57.525 L11.328,62.214 C10.422,62.404 9.741,63.207 9.741,64.17 L9.741,69.212 C9.741,70.138 10.374,70.91 11.228,71.138 C11.028,74.248 10.457,80.424 8.912,85.212 L6.66,85.212 C5.556,85.212 4.66,86.108 4.66,87.212 C4.66,88.316 5.556,89.212 6.66,89.212 L10.316,89.212 C10.319,89.212 10.323,89.213 10.327,89.213 C10.329,89.213 10.331,89.212 10.333,89.212 L31.303,89.212 C32.407,89.212 33.303,88.316 33.303,87.212 C33.303,81.846 36.741,76.17 39.991,76.17 C43.241,76.17 46.679,81.846 46.679,87.212 C46.679,88.316 47.575,89.212 48.679,89.212 L69.648,89.212 C69.651,89.212 69.653,89.213 69.655,89.213 C69.659,89.213 69.662,89.212 69.666,89.212 L73.322,89.212 C74.426,89.212 75.322,88.316 75.322,87.212 C75.322,86.108 74.425,85.215 73.32,85.215 Z M57.435,41.447 C58.719,43.991 60.669,47.304 63.326,50.343 L51.544,50.343 C54.199,47.303 56.15,43.991 57.435,41.447 Z M50.41,54.343 L64.653,54.343 L64.653,62.173 L62.654,62.173 L62.654,60.881 C62.654,59.777 61.758,58.881 60.654,58.881 C59.55,58.881 58.654,59.777 58.654,60.881 L58.654,62.173 L56.216,62.173 L56.216,60.881 C56.216,59.777 55.32,58.881 54.216,58.881 C53.112,58.881 52.216,59.777 52.216,60.881 L52.216,62.173 L50.41,62.173 L50.41,54.343 Z M43.003,22.688 C44.317,26.823 45.997,30.92 47.138,33.548 L38.868,33.548 C40.008,30.92 41.688,26.823 43.003,22.688 Z M45.41,37.548 L45.41,39.444 L40.596,39.444 L40.596,37.548 L45.41,37.548 Z M37.501,43.443 L48.505,43.443 L48.505,46.042 L46.73,48.797 C46.521,49.12 46.411,49.496 46.411,49.881 L46.411,62.173 L39.597,62.173 L39.597,49.881 C39.597,49.496 39.486,49.12 39.278,48.797 L37.502,46.042 L37.502,43.443 L37.501,43.443 Z M32.233,50.465 L35.593,50.465 L35.596,50.47 L35.596,53.589 L29.717,53.589 C30.879,52.52 31.717,51.328 32.233,50.465 Z M29.16,57.589 L35.596,57.589 L35.596,62.173 L34.285,62.173 L34.285,60.881 C34.285,59.777 33.389,58.881 32.285,58.881 C31.181,58.881 30.285,59.777 30.285,60.881 L30.285,62.173 L29.16,62.173 L29.16,57.589 Z M20.159,47.107 C21.152,48.952 22.535,51.264 24.286,53.588 L16.031,53.588 C17.783,51.265 19.166,48.952 20.159,47.107 Z M15.327,57.589 L25.16,57.589 L25.16,62.173 L22.159,62.173 L22.159,60.881 C22.159,59.777 21.263,58.881 20.159,58.881 C19.055,58.881 18.159,59.777 18.159,60.881 L18.159,62.173 L15.327,62.173 L15.327,57.589 Z M13.74,66.173 L66.24,66.173 L66.24,67.215 L13.74,67.215 L13.74,66.173 Z M50.549,85.215 C49.8,78.703 45.537,72.173 39.99,72.173 C34.443,72.173 30.18,78.703 29.432,85.215 L13.087,85.215 C13.207,84.789 13.32,84.358 13.428,83.923 L24.23,83.923 C25.334,83.923 26.23,83.027 26.23,81.923 C26.23,80.819 25.334,79.923 24.23,79.923 L14.253,79.923 C14.841,76.462 15.112,73.2 15.233,71.215 L64.745,71.215 C64.866,73.2 65.138,76.462 65.725,79.923 L55.747,79.923 C54.643,79.923 53.747,80.819 53.747,81.923 C53.747,83.027 54.643,83.923 55.747,83.923 L66.55,83.923 C66.658,84.358 66.772,84.789 66.892,85.215 L50.549,85.215 Z M57.749,77.803 C58.853,77.803 59.749,76.907 59.749,75.803 L59.749,74.488 C59.749,73.384 58.853,72.488 57.749,72.488 C56.645,72.488 55.749,73.384 55.749,74.488 L55.749,75.803 C55.749,76.907 56.645,77.803 57.749,77.803 Z M43.003,51.058 C44.107,51.058 45.003,50.162 45.003,49.058 L45.003,47.049 C45.003,45.945 44.107,45.049 43.003,45.049 C41.899,45.049 41.003,45.945 41.003,47.049 L41.003,49.058 C41.003,50.162 41.898,51.058 43.003,51.058 Z M22.23,72.487 C21.126,72.487 20.23,73.383 20.23,74.487 L20.23,75.802 C20.23,76.906 21.126,77.802 22.23,77.802 C23.334,77.802 24.23,76.906 24.23,75.802 L24.23,74.487 C24.23,73.383 23.335,72.487 22.23,72.487 Z M20.357,26.243 C20.748,26.634 21.26,26.829 21.772,26.829 C22.284,26.829 22.795,26.634 23.186,26.244 C23.967,25.463 23.968,24.197 23.187,23.415 L21.104,21.33 C20.323,20.548 19.057,20.548 18.275,21.329 C17.494,22.11 17.493,23.376 18.274,24.158 L20.357,26.243 Z M14.693,29.762 C14.693,29.762 14.693,29.762 14.693,29.762 C15.797,29.762 16.693,28.867 16.693,27.762 L16.694,24.815 C16.694,23.711 15.799,22.815 14.694,22.815 C14.694,22.815 14.694,22.815 14.694,22.815 C13.59,22.815 12.694,23.71 12.694,24.815 L12.693,27.762 C12.693,28.866 13.588,29.761 14.693,29.762 Z M19.763,17.749 C19.763,18.853 20.659,19.749 21.763,19.749 L24.707,19.749 C25.811,19.749 26.707,18.853 26.707,17.749 C26.707,16.645 25.811,15.749 24.707,15.749 L21.763,15.749 C20.658,15.749 19.763,16.645 19.763,17.749 Z M19.69,14.752 C20.202,14.752 20.714,14.557 21.105,14.166 L23.187,12.082 C23.967,11.301 23.967,10.034 23.186,9.253 C22.404,8.472 21.138,8.473 20.357,9.254 L18.275,11.338 C17.495,12.119 17.495,13.386 18.276,14.167 C18.667,14.557 19.179,14.752 19.69,14.752 Z M11.112,21.332 C10.331,20.551 9.065,20.551 8.283,21.332 L6.199,23.415 C5.418,24.196 5.418,25.462 6.199,26.244 C6.59,26.635 7.101,26.83 7.614,26.83 C8.126,26.83 8.637,26.635 9.028,26.245 L11.112,24.162 C11.893,23.38 11.893,22.113 11.112,21.332 Z M14.694,12.684 C15.799,12.684 16.694,11.788 16.694,10.684 L16.693,7.737 C16.693,6.633 15.797,5.737 14.693,5.737 C13.588,5.737 12.693,6.633 12.693,7.737 L12.694,10.684 C12.695,11.789 13.59,12.684 14.694,12.684 Z M2.685,17.749 C2.685,18.853 3.581,19.749 4.685,19.749 L7.63,19.749 C8.734,19.749 9.63,18.853 9.63,17.749 C9.63,16.645 8.734,15.749 7.63,15.749 L4.685,15.749 C3.58,15.749 2.685,16.645 2.685,17.749 Z M8.283,14.166 C8.673,14.557 9.185,14.752 9.697,14.752 C10.209,14.752 10.721,14.557 11.111,14.166 C11.892,13.385 11.892,12.119 11.111,11.338 L9.027,9.254 C8.247,8.473 6.979,8.473 6.199,9.254 C5.418,10.035 5.418,11.301 6.199,12.082 L8.283,14.166 Z M63.241,9.215 C63.632,9.606 64.143,9.801 64.655,9.801 C65.167,9.801 65.678,9.606 66.069,9.215 C66.85,8.434 66.85,7.168 66.069,6.387 L63.985,4.303 C63.204,3.522 61.938,3.522 61.157,4.303 C60.376,5.084 60.376,6.35 61.157,7.131 L63.241,9.215 Z M59.643,14.798 L62.588,14.798 C63.692,14.798 64.588,13.902 64.588,12.798 C64.588,11.694 63.692,10.798 62.588,10.798 L59.643,10.798 C58.539,10.798 57.643,11.694 57.643,12.798 C57.643,13.902 58.538,14.798 59.643,14.798 Z M69.652,7.732 C69.652,7.732 69.652,7.732 69.652,7.732 C70.757,7.732 71.652,6.836 71.652,5.732 L71.651,2.785 C71.651,1.681 70.755,0.785 69.651,0.785 C69.651,0.785 69.651,0.785 69.65,0.785 C68.546,0.785 67.651,1.681 67.651,2.785 L67.652,5.732 C67.652,6.837 68.548,7.732 69.652,7.732 Z M74.648,9.801 C75.16,9.801 75.672,9.606 76.063,9.215 L78.145,7.131 C78.925,6.35 78.925,5.083 78.143,4.302 C77.364,3.522 76.096,3.521 75.315,4.303 L73.233,6.387 C72.453,7.168 72.453,8.435 73.235,9.216 C73.625,9.606 74.137,9.801 74.648,9.801 Z M79.665,10.798 L76.721,10.798 C75.617,10.798 74.721,11.694 74.721,12.798 C74.721,13.902 75.617,14.798 76.721,14.798 L79.665,14.798 C80.769,14.798 81.665,13.902 81.665,12.798 C81.665,11.694 80.77,10.798 79.665,10.798 Z M76.063,16.379 C75.283,15.597 74.015,15.597 73.235,16.378 C72.453,17.159 72.453,18.425 73.233,19.207 L75.316,21.292 C75.707,21.683 76.218,21.878 76.731,21.878 C77.243,21.878 77.754,21.683 78.144,21.293 C78.926,20.512 78.926,19.246 78.146,18.464 L76.063,16.379 Z M69.65,24.811 C69.651,24.811 69.651,24.811 69.65,24.811 C70.755,24.811 71.651,23.916 71.651,22.811 L71.652,19.864 C71.652,18.76 70.757,17.864 69.653,17.864 C69.652,17.864 69.652,17.864 69.652,17.864 C68.548,17.864 67.652,18.759 67.652,19.864 L67.651,22.811 C67.651,23.915 68.546,24.81 69.65,24.811 Z M63.241,16.38 L61.157,18.463 C60.376,19.244 60.376,20.51 61.157,21.292 C61.547,21.683 62.059,21.878 62.571,21.878 C63.083,21.878 63.594,21.683 63.985,21.293 L66.069,19.21 C66.85,18.429 66.85,17.163 66.069,16.381 C65.29,15.6 64.022,15.6 63.241,16.38 Z M14.694,15.749 C13.59,15.749 12.694,16.644 12.694,17.749 C12.694,18.853 13.59,19.749 14.694,19.749 C15.799,19.749 16.694,18.853 16.694,17.749 C16.694,16.644 15.799,15.749 14.694,15.749 Z M27.046,20.869 C25.942,20.869 25.046,21.764 25.046,22.869 C25.046,23.973 25.942,24.869 27.046,24.869 C28.151,24.869 29.046,23.973 29.046,22.869 C29.046,21.764 28.151,20.869 27.046,20.869 Z M69.654,10.798 C68.55,10.798 67.654,11.693 67.654,12.798 C67.654,13.902 68.55,14.798 69.654,14.798 C70.758,14.798 71.654,13.902 71.654,12.798 C71.654,11.693 70.759,10.798 69.654,10.798 Z M27.046,14.633 C28.151,14.633 29.046,13.737 29.046,12.633 C29.046,11.528 28.151,10.633 27.046,10.633 C25.942,10.633 25.046,11.528 25.046,12.633 C25.046,13.737 25.941,14.633 27.046,14.633 Z M2.335,20.869 C1.231,20.869 0.335,21.764 0.335,22.869 C0.335,23.973 1.231,24.869 2.335,24.869 C3.44,24.869 4.335,23.973 4.335,22.869 C4.335,21.764 3.44,20.869 2.335,20.869 Z M2.335,14.633 C3.44,14.633 4.335,13.737 4.335,12.633 C4.335,11.528 3.44,10.633 2.335,10.633 C1.231,10.633 0.335,11.528 0.335,12.633 C0.335,13.737 1.23,14.633 2.335,14.633 Z M9.576,28.107 C8.472,28.107 7.576,29.003 7.576,30.107 C7.576,31.212 8.472,32.107 9.576,32.107 C10.681,32.107 11.576,31.212 11.576,30.107 C11.576,29.003 10.681,28.107 9.576,28.107 Z M19.812,28.107 C18.708,28.107 17.812,29.003 17.812,30.107 C17.812,31.212 18.708,32.107 19.812,32.107 C20.917,32.107 21.812,31.212 21.812,30.107 C21.812,29.003 20.917,28.107 19.812,28.107 Z M9.576,7.39 C10.681,7.39 11.576,6.495 11.576,5.39 C11.576,4.286 10.681,3.39 9.576,3.39 C8.472,3.39 7.576,4.286 7.576,5.39 C7.576,6.495 8.472,7.39 9.576,7.39 Z M19.813,7.39 C20.918,7.39 21.813,6.495 21.813,5.39 C21.813,4.286 20.918,3.39 19.813,3.39 C18.709,3.39 17.813,4.286 17.813,5.39 C17.813,6.495 18.708,7.39 19.813,7.39 Z" id="Shape"></path>
        </g>
    </g>
</svg>