<?xml version="1.0" encoding="UTF-8"?>
<svg width="97px" height="143px" viewBox="0 0 97 143" version="1.1" xmlns="http://www.w3.org/2000/svg" xmlns:xlink="http://www.w3.org/1999/xlink">
    <!-- Generator: Sketch 49.1 (51147) - http://www.bohemiancoding.com/sketch -->
    <title>Group</title>
    <desc>Created with Sketch.</desc>
    <defs></defs>
    <g id="Page-1" stroke="none" stroke-width="1" fill="none" fill-rule="evenodd">
        <g id="Home" transform="translate(-97.000000, -92.000000)" fill-rule="nonzero">
            <g id="Group" transform="translate(97.000000, 92.000000)">
                <g id="prototipos_elite-01">
                    <polygon id="Shape" fill="#E5C688" points="34 9.36821884 9.22381845 9.36821884 9.22381845 12.6546796 32.1736415 12.6546796 32.1736415 22.0445674 9.20258172 22.0445674 9.20258172 24.9337636 32.1524047 24.9337636 32.1524047 34.3236515 9.20258172 34.3236515 9.20258172 37.6101122 33.9787633 37.6101122 33.9787633 47 0 47 0 0 33.9787633 0"></polygon>
                    <polygon id="Shape" fill="#E5C688" points="73.9782418 47 41 47 41 0 50.4285714 0 50.4285714 37.640536 64.5714286 37.640536 64.5714286 28.230402 74 28.230402"></polygon>
                    <polygon id="Shape" fill="#E5C688" points="97 9.4 92.246332 9.4 92.246332 37.6 97 37.6 97 47 78 47 78 37.6 82.753668 37.6 82.753668 9.4 78 9.4 78 0 97 0"></polygon>
                    <polygon id="Shape" fill="#E5C688" points="48 96.6304729 29.8515124 96.6304729 29.8515124 102.434826 45.6461962 102.434826 45.6461962 114.07981 29.8515124 114.07981 29.8515124 143 18.1191567 143 18.1191567 114.065299 2.35380385 114.065299 2.35380385 102.41306 18.1484876 102.41306 18.1484876 96.6087065 0 96.6087065 0 85 48 85"></polygon>
                    <polygon id="Shape" fill="#E5C688" points="97 96.5608598 65.5954237 96.5608598 65.5954237 100.627093 94.6605085 100.627093 94.6605085 112.224194 65.5954237 112.224194 65.5954237 115.754061 94.6605085 115.754061 94.6605085 127.351162 65.5954237 127.351162 65.5954237 131.402899 97 131.402899 97 143 54 143 54 85 97 85"></polygon>
                    <path d="M2.78642001,48.1615392 C3.62530634,47.9812803 4.48948593,47.9516074 5.33873015,48.0739016 C6.21580714,48.1940111 7.07369177,48.4272107 7.89104029,48.7676986 C8.70672938,49.1056282 9.47421395,49.5501031 10.1735348,50.0895645 C10.847703,50.6033445 11.4402445,51.216463 11.9309826,51.9080429 C12.3956229,52.566139 12.7230075,53.3112979 12.8935682,54.0989808 C13.0642825,54.9126685 13.0291879,55.7561867 12.7914758,56.5528313 C12.4612929,57.6969379 11.8523651,58.7409278 11.0194433,59.5909318 C10.3217256,60.2921529 9.51979289,60.8809446 8.6421487,61.336379 C7.70854656,61.8157054 6.70391138,62.1412163 5.66688431,62.3003917 C5.48611442,62.5327356 5.35235321,62.7981739 5.27309932,63.0818262 C5.13211457,63.4810638 4.98626827,63.9679388 4.83556043,64.5424514 C4.6848526,65.116964 4.52442167,65.7425985 4.35426767,66.4193549 C4.18411366,67.10098 4.02854428,67.7923426 3.88755953,68.4934428 C3.52780533,70.1390806 3.15832806,71.9745996 2.77912769,74 C2.47816211,73.9153832 2.21867644,73.7230791 2.04989623,73.4595687 C1.80205199,73.1007073 1.61481563,72.7034738 1.49568031,72.2837653 C1.29621056,71.5485167 1.2004818,70.7889259 1.21128004,70.0270993 C1.19902338,69.3585179 1.23313622,68.6898911 1.31337244,68.0260427 C1.40574176,67.1740113 1.52484957,66.2221705 1.67069586,65.1705203 C1.81654216,64.1188701 1.99155771,62.996623 2.19574252,61.8037791 C2.39506579,60.6109351 2.59438905,59.4326974 2.79371232,58.269066 C3.27986664,55.5425655 3.83165178,52.5945368 4.44906776,49.42498 C3.28715895,49.34708 2.40478887,49.2570081 1.80195753,49.1547643 C1.59283312,49.1259902 1.38744533,49.0745672 1.18940309,49.0013987 C1.03869526,48.9429737 0.977925966,48.8723768 1.00709523,48.789608 C1.03626448,48.7068393 1.19183386,48.6118986 1.47380336,48.5047861 C1.90152442,48.3555707 2.3404576,48.2407905 2.78642001,48.1615392 Z M10.6912891,56.6185594 C10.8441665,56.2349326 10.9257227,55.8265468 10.9319355,55.4135436 C10.9320072,55.0419679 10.8754482,54.6725578 10.7642123,54.3180746 C10.6556358,53.9714065 10.4985008,53.6419174 10.2975041,53.3394557 C10.1070265,53.0533977 9.89492772,52.7823877 9.66307276,52.5288087 C9.09171734,51.8907088 8.42208094,51.3482881 7.67956316,50.9221209 L5.96586921,60.2482132 C6.61364914,60.1660705 7.24259159,59.9734029 7.82540946,59.6785693 C8.39497581,59.3836252 8.9203033,59.0099422 9.3859648,58.5684941 C9.95881867,58.0195827 10.4044077,57.3514548 10.6912891,56.6112563 L10.6912891,56.6185594 Z" id="Shape" fill="#C2C2C2"></path>
                    <path d="M12.03672,60.9943591 C11.7074924,61.3744863 11.514659,61.5645499 11.45822,61.5645499 C11.401781,61.5645499 11.401781,61.4597713 11.45822,61.250214 C11.5680789,60.9714588 11.6953358,60.7004105 11.8391834,60.4387886 L12.3330249,59.5030909 L12.6928236,58.8086278 C12.7774822,58.6404946 12.784537,58.611254 12.6928236,58.7355264 C12.8678459,58.4667603 13.1399245,58.2823248 13.4476955,58.2238167 C13.7373197,58.1740529 14.0328762,58.1740529 14.3225004,58.2238167 C14.6697368,58.2892442 15.0099832,58.3896251 15.3384028,58.5235324 L12.0226102,67.1714261 C12.1953334,66.6583053 12.3955322,66.1555622 12.6222749,65.6655376 C12.923283,64.983258 13.2971915,64.2254403 13.7440004,63.3920845 C14.2106403,62.5230024 14.719236,61.67883 15.267854,60.8627766 C15.8022326,60.0705017 16.4120085,59.3358054 17.0880125,58.6697351 C17.6624449,58.082302 18.3307915,57.6024784 19.0633782,57.2515683 C19.7032817,56.9436852 20.4362114,56.9173155 21.095183,57.1784669 C21.4907334,57.3351526 21.8750193,57.5208119 22.2451281,57.7340374 C22.4647262,57.8574527 22.6646176,58.0152614 22.8377378,58.2018863 C22.9413322,58.3051647 22.9999113,58.4476745 23,58.5966337 C22.9900423,58.7160743 22.9309178,58.8252836 22.8377378,58.8963494 C22.4835238,59.1840922 22.0627094,59.3706066 21.617244,59.4372997 C21.7451874,59.3076477 21.8609384,59.165679 21.962933,59.0133116 C22.0191215,58.9248078 22.0346197,58.8150717 22.0052622,58.713596 C21.9770427,58.611254 21.8453517,58.560083 21.6101891,58.560083 C20.7506875,58.5630231 19.9059612,58.7919065 19.1550916,59.2253056 C18.3346067,59.6958943 17.5857528,60.2895569 16.9328051,60.987049 C16.2073077,61.7557904 15.5464541,62.5872903 14.9574394,63.472496 C14.3613684,64.3618769 13.8126222,65.2843282 13.3136529,66.2357284 C12.0265858,68.7093449 10.938792,71.288837 10.0613542,73.9479244 C9.73957387,74.0854929 9.36990875,73.9418527 9.21476891,73.6189681 C9.04203487,73.1868175 8.97187448,72.7180347 9.01017745,72.2519722 C9.04233946,71.5585514 9.12964561,70.8690608 9.27120793,70.1905132 C9.42641524,69.4058917 9.61924856,68.5920296 9.8497079,67.748927 C10.3764721,65.7751896 11.1054761,63.523667 12.03672,60.9943591 Z" id="Shape" fill="#C2C2C2"></path>
                    <path d="M29.254801,58.4084277 C28.8472267,58.124624 28.3277026,58.0592204 27.8633043,58.2332501 C27.5986369,58.3294511 27.3481912,58.4614603 27.1188536,58.6256479 C26.7999337,58.8526822 26.506047,59.1134288 26.2422106,59.4034363 C25.874266,59.8077754 25.5392254,60.2412792 25.240333,60.6997503 C24.0788682,62.5542726 23.1642563,64.5543835 22.5199568,66.6487806 C22.2735574,67.5989534 22.1151763,68.5700913 22.0468479,69.5497211 C21.9920739,70.3390915 22.0792821,71.1319363 22.3042748,71.8900935 C22.9292918,71.719793 23.51378,71.4242731 24.0227733,71.0212127 C24.6258097,70.5282005 25.1698331,69.9661882 25.643867,69.3465152 C26.3312651,68.4276657 26.8863866,67.4156591 27.2927906,66.3404681 C27.721864,65.3304623 28.0708295,64.2878149 28.3364132,63.2223073 C28.4914999,62.597595 28.6053874,61.9632354 28.6773299,61.3233824 C28.7143367,60.8928378 28.654896,60.4594185 28.5033928,60.0550968 C28.444267,59.9105719 28.4654372,59.7453323 28.5590527,59.6206565 C28.706928,59.473418 28.8885316,59.3651226 29.0878214,59.3053368 C29.5017152,59.1824266 29.9296942,59.1141211 30.3610409,59.1021308 C30.8300082,59.0976667 31.2969091,59.0388879 31.7525377,58.9269533 C32.0267257,58.8555606 32.2908762,58.7496177 32.5387333,58.6116336 C32.7187936,58.5086517 32.8678446,58.3585377 32.9700973,58.1771933 C33.0295729,58.4015566 32.999611,58.6404469 32.8866075,58.842868 C32.7431179,59.0639579 32.5530948,59.2505517 32.3300088,59.3894221 C31.9495637,59.6202495 31.5253209,59.7682419 31.0846193,59.8238624 C30.5094673,59.9406475 30.1036141,60.0364112 29.8670596,60.1111537 C29.6910026,60.1457953 29.5330596,60.2427283 29.4217807,60.3844307 C29.3628381,60.5182863 29.3628381,60.6710012 29.4217807,60.8048568 C29.4913973,61.033503 29.5402996,61.268032 29.5678878,61.5055671 C29.5802536,62.0130338 29.5121417,62.5192372 29.3661208,63.0050871 C29.1592685,63.8287038 28.9013354,64.6384455 28.5938401,65.4295447 C28.2309168,66.3842979 27.8198916,67.3197928 27.3623655,68.2323858 C26.9186895,69.1279907 26.3996172,69.9836525 25.8108466,70.7899783 C25.3283576,71.4686494 24.7383834,72.0628311 24.0645182,72.5487612 C23.5461126,72.9603056 22.8649649,73.1006249 22.2277425,72.9271447 C21.6422096,72.7733484 21.1325624,72.4095661 20.7945009,71.9041077 C20.4310881,71.3512681 20.1935045,70.7243599 20.0987525,70.0682468 C19.9829645,69.2886417 19.9689305,68.4971317 20.0570076,67.7138602 C20.2373387,65.9556788 20.6757998,64.2341935 21.3580571,62.6056823 C21.6710131,61.8493553 22.0456808,61.1204566 22.4782119,60.4264733 C22.9431499,59.630871 23.5382819,58.9201481 24.2384553,58.3243424 C24.7115336,57.9340598 25.2246612,57.5957992 25.7691017,57.3153196 C26.2403845,57.1139067 26.7460887,57.0068087 27.2580032,57 C27.6782921,57.0615561 28.0910312,57.1672381 28.4894778,57.3153196 C28.7517094,57.4173078 28.9890194,57.5750494 29.1852262,57.7777884 C29.3438071,57.9496214 29.3720618,58.2057271 29.254801,58.4084277 Z" id="Shape" fill="#C2C2C2"></path>
                    <path d="M58.0846129,81.4983298 C58.5462439,81.9393489 58.85414,82.5170706 58.9629485,83.1463975 C59.0332832,83.569844 59.0031967,84.003905 58.8751149,84.4135785 C58.7531238,84.726101 58.6164939,84.8823622 58.465225,84.8823622 C58.3139561,84.8823622 58.2993171,84.621113 58.4213082,84.0986145 C58.5355311,83.5648531 58.4097544,83.0078225 58.0772934,82.5750674 C57.6701957,82.0120277 57.1760344,81.5175099 56.6134008,81.1101183 C55.9641883,80.6177457 55.2791328,80.1745867 54.5639512,79.7843394 C53.7978474,79.3595041 53.0659011,78.9761758 52.3681122,78.6343543 C51.9545529,78.4550754 51.5259004,78.3129052 51.0872062,78.2095191 C50.599242,78.08744 50.0722407,77.982452 49.5062022,77.8945551 C48.9401637,77.8066581 48.3570465,77.7358522 47.7568505,77.6821374 L46.0074989,77.5429673 C44.6607177,77.4599535 43.2529409,77.4404208 41.7841687,77.4843693 C41.0234545,78.7307247 40.0782561,79.8544209 38.9808143,80.8171285 C37.7206567,81.9587719 36.3748032,83.0019489 34.9551096,83.9374701 C33.521231,84.8879936 32.0301066,85.7490667 30.4902372,86.5157805 C29.1657205,87.1913448 27.7903293,87.7619808 26.376699,88.2224461 C25.2222966,88.6185695 24.0218513,88.8647399 22.804801,88.9549207 C21.7440582,89.0272278 20.6791809,89.0125292 19.6208346,88.9109722 C18.7644539,88.8300419 17.9169469,88.6731645 17.0883003,88.4421885 C16.539415,88.2967918 16.0052333,88.1006203 15.4926574,87.8562089 C15.2318021,87.7164826 14.986454,87.5495255 14.7607111,87.3581262 C14.5042853,87.1512822 14.2989115,86.8881138 14.1605151,86.5890279 C14.0157878,86.2627464 13.9675262,85.9017942 14.0214453,85.5489141 C14.1203714,85.0520995 14.3389595,84.5869504 14.6582386,84.1938361 C15.15216,83.5554574 15.7196889,82.9776845 16.3490346,82.472521 C17.3121713,81.694703 18.335198,80.9942322 19.4085701,80.3776438 C20.3995402,79.8116064 21.4321274,79.3218754 22.4973835,78.9126947 C23.5955713,78.4789845 24.7172121,78.1072799 25.8570171,77.7993334 C27.003733,77.4868109 28.1504488,77.2280032 29.2971647,77.0229104 C30.4438806,76.8178175 31.5491195,76.6542315 32.6128815,76.5321524 C35.0956114,76.2345875 37.5929764,76.0756385 40.0933727,76.056044 C40.3099879,75.783959 40.3980984,75.4312626 40.334915,75.0891776 C40.2417112,74.8174963 40.0478206,74.5920013 39.7932747,74.4592494 C39.4555163,74.2766505 39.0892099,74.152809 38.7099942,74.0930122 C38.2409277,74.0080037 37.7663973,73.9565999 37.2900184,73.9391925 C35.8787707,73.8901747 34.4659127,73.9612362 33.0666882,74.1516101 C32.3819329,74.2841489 31.6853234,74.3455144 30.9879607,74.3347288 C30.7420767,74.3362834 30.4967217,74.3117302 30.2560144,74.2614813 C30.0411111,74.2161664 29.8339779,74.1396693 29.6411795,74.0344142 C29.4669126,73.9414048 29.3242319,73.7986211 29.2312895,73.6242285 C29.1395704,73.4328791 29.1138295,73.2164996 29.1580949,73.0089498 C29.1882948,72.7449831 29.3162627,72.50193 29.5167486,72.3277485 C29.7639163,72.098939 30.0424179,71.9065603 30.3438479,71.7564184 C30.709478,71.5713397 31.0887642,71.4146182 31.4783647,71.2876347 C31.9028936,71.1460229 32.3249826,71.0141775 32.7446318,70.8920984 C32.1027255,70.3428382 31.6922016,69.5709152 31.5954761,68.7312985 C31.4343063,67.7023498 31.4343063,66.6545551 31.5954761,65.6256064 C31.764687,64.4736708 32.051651,63.3421674 32.4518533,62.2488988 C32.8136315,61.2245263 33.2848041,60.2422083 33.8571902,59.3190006 C34.3204068,58.5583349 34.8897469,57.8677277 35.5479862,57.2680719 C35.9833427,56.8723413 36.4771178,56.5462145 37.0118788,56.3012055 C37.4709696,56.0919111 37.9714204,55.9892447 38.4757714,56.0008909 C38.876928,56.0647472 39.2713899,56.1652728 39.6542049,56.3012055 C39.9175944,56.3903207 40.1559643,56.5409788 40.3495539,56.7406902 C40.5220638,56.9349447 40.5220638,57.227637 40.3495539,57.4218915 C39.956086,57.1408589 39.4493471,57.0723312 38.9954533,57.2387729 C38.399552,57.4855672 37.8685509,57.8665597 37.4437271,58.3521342 C36.6265402,59.2892327 35.9418695,60.3342324 35.4089164,61.4578263 C34.7430171,62.67958 34.2222352,63.9750993 33.8571902,65.3179671 C33.61768,66.227291 33.4608921,67.1564396 33.3887446,68.0940456 C33.3344528,68.8568598 33.4162419,69.6232558 33.6302868,70.357392 C34.2337585,70.1878291 34.7982158,69.9016642 35.2918049,69.5150463 C35.8775475,69.0492556 36.4036413,68.5129416 36.85817,67.9182518 C37.5182867,67.0410174 38.055162,66.0773946 38.453813,65.0542763 C38.8757901,64.0890441 39.2137393,63.089169 39.4638989,62.0657801 C39.6059418,61.4500156 39.7110419,60.8262978 39.7786358,60.1979701 C39.8117897,59.7791817 39.7594938,59.3580204 39.6249271,58.9600881 C39.532183,58.8336832 39.532183,58.6616577 39.6249271,58.5352528 C39.7683473,58.3975537 39.9448098,58.2991679 40.1372895,58.2495878 C40.5500259,58.1335455 40.9751141,58.0671544 41.4035566,58.0518196 C41.8656324,58.0479076 42.3254208,57.9863942 42.7722962,57.868701 C43.0380465,57.7951025 43.2955701,57.6944732 43.5408398,57.5683864 C43.7289418,57.4826802 43.8797243,57.331789 43.9653687,57.1435512 C43.9873524,57.3627782 43.9467435,57.5837485 43.8482573,57.7808041 C43.7011764,57.9880249 43.5176396,58.1667302 43.306617,58.3081857 C42.9404803,58.5402307 42.5284645,58.6901627 42.0989056,58.7476705 L40.935111,59.018686 C40.7648578,59.0450274 40.6093453,59.1306211 40.4959432,59.2604026 C40.4340697,59.3901212 40.4340697,59.5408698 40.4959432,59.6705884 C40.571746,59.9089308 40.6232448,60.1543399 40.6496519,60.4030629 C40.6832135,60.7271389 40.6584229,61.0546117 40.5764573,61.3699293 C40.4629485,61.8948062 40.321233,62.4131744 40.1519284,62.9227754 C39.9616224,63.5185213 39.7298394,64.1533326 39.4565794,64.8272092 C39.1833195,65.5010858 38.875902,66.1700792 38.5343271,66.8341894 C38.2004354,67.4869894 37.834001,68.1226008 37.4364076,68.7386232 C37.0833634,69.2923876 36.6737084,69.8078945 36.2140573,70.2768198 C36.2330013,70.2835223 36.253669,70.2835223 36.272613,70.2768198 C36.5300648,70.2879966 36.7810762,70.3608425 37.0045593,70.4892374 C37.0826336,70.5722512 37.0069991,70.6577066 36.7776559,70.7456035 C36.2502017,70.9073437 35.712142,71.0321657 35.1673741,71.1191655 C34.6794099,71.221712 34.1353298,71.3462326 33.5351338,71.4927275 C32.9629949,71.6340476 32.3986267,71.8051917 31.8443379,72.0054597 C31.3960676,72.1621738 30.9625295,72.3582646 30.5487929,72.5914394 C30.2072179,72.7916491 30.0657083,72.9820924 30.124264,73.1627695 C30.1828197,73.3434466 30.4438806,73.4801751 30.9074466,73.5729552 C31.4762224,73.6010767 32.0463058,73.5863858 32.6128815,73.5290068 L34.977068,73.3165892 C35.8602832,73.2335754 36.7752161,73.1920685 37.7218667,73.1920685 C38.589809,73.1449465 39.4568131,73.3004177 40.2544009,73.6462027 C40.7420244,73.8753068 41.1740802,74.207705 41.520668,74.6203938 C41.8263602,75.0467027 41.9855999,75.5607498 41.9744747,76.0853429 C45.5509121,75.7885747 49.1472378,76.3302938 52.4779042,77.667488 C53.6923499,78.1707713 54.8423404,78.817493 55.9034129,79.593896 C56.68377,80.1648601 57.4135337,80.8020261 58.0846129,81.4983298 Z M28.5578989,84.8164395 C29.89044,84.1284706 31.1787344,83.3578717 32.415256,82.5091447 C33.6595647,81.6545911 34.7745629,80.8537522 35.7602506,80.1066282 C36.8874479,79.2423082 37.963409,78.3682219 38.9881338,77.4843693 C35.3617877,77.741065 31.755641,78.2303869 28.1919258,78.9493184 C26.8061075,79.2520745 25.4129697,79.6085455 24.0125124,80.0187312 C22.6790688,80.4068799 21.3772795,80.8966276 20.118558,81.4836803 C19.000586,81.998484 17.9467217,82.6425673 16.9785084,83.4027636 C16.1442995,84.03828 15.4845482,84.8749041 15.0608091,85.8345791 C14.938818,86.1178026 15.04861,86.3619608 15.3901849,86.5670537 C15.8604561,86.8077447 16.3721223,86.9568813 16.8979943,87.0065384 C17.6895144,87.1026007 18.4873037,87.1368863 19.2841393,87.1090848 C20.2655496,87.0826133 21.2438878,86.9871565 22.2119245,86.8234198 C23.2873646,86.6454015 24.35073,86.4007733 25.3958909,86.0909452 C26.4885075,85.7691734 27.5474452,85.342349 28.5578989,84.8164395 Z" id="Shape" fill="#C2C2C2"></path>
                    <path d="M44.0697678,60.9789603 C43.7415326,61.357622 43.5492805,61.5469529 43.4930116,61.5469529 C43.4367427,61.5469529 43.4367427,61.4425782 43.4930116,61.2338287 C43.6025393,60.9561482 43.7294127,60.6861448 43.8728266,60.4255316 L44.3651794,59.4934411 L44.7238936,58.8016552 C44.808297,58.6341702 44.8153306,58.6050424 44.7238936,58.7288356 C44.8983883,58.4611057 45.1696467,58.2773812 45.4764901,58.2190987 C45.7652412,58.1695267 46.0599068,58.1695267 46.3486579,58.2190987 C46.6948476,58.284274 47.0340683,58.3842679 47.3614979,58.5176589 L44.0557005,67.1322137 C44.227903,66.621071 44.4274984,66.1202661 44.6535575,65.6321306 C44.9536583,64.9524813 45.3264397,64.1975851 45.7719017,63.3674421 C46.237135,62.5017104 46.7441976,61.6607924 47.2911618,60.847885 C47.8239296,60.0586644 48.4318673,59.3268005 49.1058336,58.663298 C49.6785344,58.0781295 50.3448664,57.6001558 51.0752448,57.2505984 C51.7132193,56.9439023 52.4439396,56.9176342 53.1009249,57.1777789 C53.4952829,57.3338605 53.8784105,57.518804 54.2474036,57.7312076 C54.4663398,57.8541471 54.6656286,58.0113474 54.8382269,58.1972528 C54.941509,58.3001331 54.9999115,58.4420935 55,58.5904785 C54.9900723,58.7094586 54.931126,58.8182469 54.8382269,58.8890387 C54.4850806,59.1756722 54.0655348,59.3614675 53.6214122,59.4279035 C53.7489699,59.2987514 53.864372,59.15733 53.9660591,59.00555 C54.0220783,58.9173874 54.0375298,58.8080743 54.0082608,58.7069898 C53.9801263,58.6050424 53.8488323,58.5540687 53.6143785,58.5540687 C52.7574679,58.5569974 51.9152879,58.7849984 51.1666817,59.2167267 C50.3486701,59.6855012 49.6020735,60.2768751 48.9510941,60.9716783 C48.2277836,61.7374561 47.5689222,62.5657504 46.9816829,63.4475436 C46.3710118,64.3537227 45.8097904,65.2945654 45.3006498,66.2656608 C44.0174624,68.7297412 42.9329477,71.2992889 42.0581549,73.9481251 C41.7373445,74.0851633 41.3687937,73.9420769 41.2141215,73.6204371 C41.0419082,73.1899525 40.9719593,72.7229768 41.0101468,72.2587112 C41.0422118,71.5679635 41.1292548,70.881131 41.2703904,70.2051994 C41.4251298,69.4236027 41.6173819,68.6128782 41.8471465,67.7730258 C42.4004573,65.7632058 43.1413311,63.4985173 44.0697678,60.9789603 Z" id="Shape" fill="#C2C2C2"></path>
                    <path d="M61.7011033,60.0330304 C61.25108,59.6388907 60.6907559,59.3938375 60.0967152,59.3313645 C59.8368243,59.312222 59.5755776,59.3371919 59.3239594,59.405224 C59.0221551,59.4912243 58.7363036,59.6259313 58.4776079,59.8040657 C58.1465038,60.0287001 57.8448495,60.2942139 57.5797393,60.5943632 C57.2265643,60.9988966 56.9203993,61.4424447 56.6671515,61.9164496 C56.0684964,62.9756135 55.5518056,64.0793688 55.12164,65.2179725 C54.7239277,66.2563128 54.394493,67.3197104 54.1354564,68.4013202 C53.9203617,69.2737331 53.7824473,70.1635034 53.72332,71.0602648 C53.6637649,71.6483119 53.7162142,72.242361 53.8778712,72.8107367 C55.1196787,71.4571926 56.2843456,70.0343625 57.3663115,68.5490393 C58.4234383,67.1036422 59.406006,65.6047863 60.310143,64.0583772 C61.3004334,62.3668683 62.1142908,60.5773896 62.7388039,58.71833 C62.9869339,58.5404136 63.2630804,58.4055906 63.5557172,58.3194883 C63.7513293,58.2745487 63.9566574,58.3062508 64.1297643,58.4081198 C64.291675,58.5115232 64.3922559,58.7749557 64.431507,59.1984172 C64.4133826,59.6731298 64.3112081,60.1408151 64.1297643,60.5795913 C63.9089769,61.2197076 63.6366725,61.9583033 63.3128511,62.7953785 L62.28251,65.4912529 C61.9194375,66.4465034 61.6005224,67.3795961 61.3257648,68.2905308 C61.0705972,69.1266636 60.8787026,69.980939 60.7517177,70.8460721 C60.6296409,71.4949161 60.664981,72.1637174 60.8547518,72.7959648 C60.8940029,72.9190641 61.0142093,72.8895203 61.2153711,72.7073333 C61.4807171,72.4528522 61.7267228,72.1788072 61.951329,71.8874921 C62.2457122,71.5231182 62.5793464,71.0922706 62.9522317,70.5949495 C63.325117,70.0976284 63.693096,69.5855353 64.0561685,69.0586704 C64.9245988,67.7981336 65.905876,66.3381761 67,64.6787976 C66.9411234,64.9840839 66.8699808,65.2893701 66.7865722,65.5946563 C66.7031637,65.8999426 66.6271147,66.173223 66.5584253,66.4144976 C66.4731677,66.6856415 66.3673719,66.9498444 66.2419634,67.2047951 C66.1634612,67.3672861 65.9966441,67.6454905 65.741512,68.0394082 C65.48638,68.433326 65.1870904,68.8838694 64.8436434,69.3910385 C64.5001964,69.8834356 64.1322175,70.4053766 63.7397066,70.9568614 C63.3471958,71.5083462 62.9620445,72.0007434 62.5842528,72.4340529 C62.2697614,72.8062428 61.9356495,73.1612764 61.5833501,73.4976308 C61.2889669,73.7733732 61.06082,73.8989344 60.8989093,73.8743146 C60.6099332,73.7979871 60.3443892,73.6507799 60.1261535,73.4459291 C59.7763032,73.107564 59.5331879,72.6735246 59.4269935,72.1977023 C59.2377166,71.4277015 59.1706562,70.6325555 59.2282849,69.8415819 C59.3225748,68.5567245 59.5570306,67.2861256 59.9274449,66.0525857 C59.9863215,65.831007 59.9004597,65.8974806 59.6698596,66.2520066 L58.6983952,67.729198 C58.2813524,68.3791623 57.805433,69.1054481 57.2706369,69.9080555 C56.7358409,70.7106628 56.2108576,71.4492586 55.6956871,72.1238427 C55.2647013,72.6903093 54.7708861,73.2057178 54.2237714,73.6601218 C53.7674775,74.0244957 53.4093113,74.0958933 53.1492729,73.8743146 C52.7214906,73.4578628 52.4268702,72.9230742 52.3029213,72.3380355 C52.0892649,71.5236083 51.9877409,70.6836547 52.0011786,69.8415819 C52.008522,68.8159055 52.1045569,67.7928042 52.2882022,66.7837955 C52.4838517,65.6766187 52.7997438,64.5942777 53.2302282,63.5561321 C53.6646432,62.5094777 54.2204442,61.5178455 54.8861334,60.6017491 C55.5428704,59.6881299 56.3671376,58.9085361 57.3147944,58.3047164 C57.7222423,58.0413493 58.2143527,57.9436309 58.6910356,58.031436 C59.2064754,58.1055609 59.7047892,58.2705939 60.1629514,58.5189092 C60.5727875,58.7374109 60.9494675,59.0134724 61.2816073,59.3387504 C61.5612713,59.6391127 61.7011033,59.8705394 61.7011033,60.0330304 Z" id="Shape" fill="#C2C2C2"></path>
                    <path d="M65.1810185,65.8910379 C65.5114395,64.8258661 65.8093191,63.9598143 66.0746573,63.2928825 C66.3399954,62.6259506 66.5777984,62.0861676 66.7880664,61.6735335 C66.9439774,61.3446936 67.1246857,61.02718 67.3287554,60.7235155 C67.4839532,60.5076023 67.6116159,60.3204775 67.7117434,60.1621412 C67.8844244,59.8857651 68.1488477,59.6728915 68.4627004,59.5575842 C68.7079949,59.4896067 68.9683629,59.4896067 69.2136574,59.5575842 C69.4742809,59.6441819 69.7160946,59.7759147 69.9270665,59.946228 C69.2862499,61.7455046 68.76058,63.2568969 68.3500569,64.480405 C68.1648208,65.0129909 67.9996103,65.5071922 67.8544253,65.9630089 C67.7092403,66.4188257 67.6016031,66.7834791 67.5315138,67.0569691 C67.4754502,67.20935 67.4499703,67.3705199 67.4564181,67.5319781 C67.4564181,67.5703627 67.5490361,67.4312186 67.7342722,67.114546 C68.0446677,66.4812006 68.4777196,65.7111102 69.0334277,64.8042748 C69.5891359,63.8974394 70.1723791,63.0265895 70.7831574,62.1917252 C71.3889294,61.3616589 71.9621599,60.6419483 72.5028489,60.0325932 C73.0435379,59.4232382 73.4565642,59.0969694 73.7419279,59.0537868 C74.0934426,58.9820711 74.456772,58.9820711 74.8082868,59.0537868 C75.0712361,59.1223108 75.3050464,59.2683417 75.4766385,59.4712189 C75.6419292,59.6716156 75.7574883,59.9054228 75.8145691,60.1549441 C75.8771196,60.4266871 75.9073506,60.7043462 75.9046839,60.9826113 C75.8805108,61.7903536 75.7337876,62.5904226 75.4691289,63.3576564 C76.0553623,62.4655343 76.7131861,61.6185139 77.4366361,60.824275 C77.8975062,60.3094324 78.4220235,59.8502418 78.9986266,59.4568247 C79.3471477,59.2072362 79.7598319,59.053011 80.1926482,59.0106041 C80.4876052,58.9920361 80.7819721,59.0544517 81.0412296,59.1905318 C81.2690926,59.3207164 81.4640106,59.4976922 81.6119569,59.7087235 C81.7473133,59.8952192 81.8654122,60.0926907 81.9649066,60.2988862 C82.0284152,60.7330278 81.9794123,61.1754777 81.8222248,61.5871682 C81.6470015,62.2684943 81.3966825,63.0793683 81.0712678,64.0197902 C80.7458532,64.9602121 80.4154321,65.9582109 80.0800046,67.0137865 C79.7195453,68.0501698 79.399137,69.009784 79.1187797,69.892629 C78.8384225,70.7754741 78.6331609,71.5263722 78.502995,72.1453233 C78.3678228,72.7498803 78.3828419,73.0809472 78.5480524,73.138524 C78.713263,73.1961009 78.9185245,73.1217308 79.1638372,72.9154137 C79.476984,72.6648661 79.7660125,72.3878637 80.0274377,72.0877465 C80.3378332,71.7422854 80.6632479,71.3560407 81.0036817,70.9290123 C81.3441155,70.501984 81.6595175,70.0821528 81.9498875,69.6695187 C82.2402575,69.2520866 82.4905765,68.8826351 82.7008445,68.5611643 C82.9111124,68.2396936 83.0562974,67.99979 83.1363995,67.8414537 C83.2415335,67.6255405 83.3441643,67.5127858 83.4442918,67.5031897 C83.5430931,67.4923991 83.6424679,67.5181396 83.7221459,67.5751608 C83.8273956,67.6830628 83.9205248,67.8012644 84,67.927819 C83.4242663,68.7003084 82.8785709,69.420019 82.3629138,70.0869509 C81.9273588,70.6627194 81.5093261,71.2073005 81.1088157,71.720694 L80.2752535,72.7714716 C80.0921924,72.988066 79.8912925,73.1902337 79.6744879,73.3760285 C79.4193812,73.6016458 79.1209841,73.7776342 78.7958682,73.8942202 C78.4693129,74.0118182 78.1132559,74.0318912 77.7745668,73.951797 C77.3551355,73.8232069 77.0013695,73.548374 76.7833036,73.1817066 C76.5926093,72.8635255 76.5111676,72.4959207 76.5505069,72.1309291 C76.5701986,71.5635378 76.632944,70.9982719 76.7382462,70.4396091 C76.8533929,69.7966676 77.013597,69.0985483 77.2188586,68.3452511 C77.4241202,67.591954 77.6418977,66.8410559 77.8721912,66.0925568 C78.4078738,64.3316648 79.0787287,62.4124364 79.8847558,60.3348717 C79.2781133,60.4787075 78.7198079,60.7685398 78.2626888,61.1769332 C77.695148,61.6668356 77.1909146,62.2201603 76.7607749,62.8250705 C76.2608224,63.5139241 75.8116594,64.2353886 75.4165619,64.9842025 C74.9910196,65.7854803 74.6030252,66.5915562 74.2525786,67.4024302 C73.3771364,69.4954827 72.6249959,71.6339893 71.9997077,73.8078549 C71.585929,73.5023829 71.2431998,73.1175351 70.9934254,72.6779092 C70.7941225,72.2870817 70.70851,71.8519669 70.7456096,71.4184156 C70.7945599,70.8726593 70.9182796,70.3354562 71.1135785,69.820658 C71.3288528,69.216101 71.6017005,68.4963904 71.9321216,67.661526 C72.26263,66.8275266 72.5459029,65.9770296 72.780703,65.1137504 C73.0160028,64.2452995 73.2062452,63.4536178 73.3514302,62.7387053 C73.5166408,61.908639 73.651813,61.097765 73.756947,60.3060833 C73.27421,60.5090693 72.8493028,60.8200429 72.517868,61.2129187 C72.0136693,61.7452261 71.5517898,62.3129874 71.1361072,62.9114358 C70.6805266,63.5735696 70.2324557,64.2932802 69.7918942,65.0705677 C69.3513328,65.8478552 68.9232873,66.6491331 68.5077578,67.4744013 C67.5365202,69.3936296 66.5777984,71.4999828 65.6315927,73.7934607 C65.2503769,73.7330365 64.9041886,73.5441749 64.6553486,73.2608748 C64.410591,72.9700724 64.2361853,72.6308585 64.1446979,72.2676741 C64.0372378,71.8511842 63.9892394,71.422646 64.002016,70.9937863 C64.0130236,70.5112942 64.0607106,70.0302126 64.1446979,69.554365 C64.3800041,68.3070592 64.7267199,67.081441 65.1810185,65.8910379 Z" id="Shape" fill="#C2C2C2"></path>
                    <path d="M91.7011033,60.0330304 C91.25108,59.6388907 90.6907559,59.3938375 90.0967152,59.3313645 C89.8368243,59.312222 89.5755776,59.3371919 89.3239594,59.405224 C89.0221551,59.4912243 88.7363036,59.6259313 88.4776079,59.8040657 C88.1465038,60.0287001 87.8448495,60.2942139 87.5797393,60.5943632 C87.2265643,60.9988966 86.9203993,61.4424447 86.6671515,61.9164496 C86.0684964,62.9756135 85.5518056,64.0793688 85.12164,65.2179725 C84.7239277,66.2563128 84.394493,67.3197104 84.1354564,68.4013202 C83.9203617,69.2737331 83.7824473,70.1635034 83.72332,71.0602648 C83.6637649,71.6483119 83.7162142,72.242361 83.8778712,72.8107367 C85.1196787,71.4571926 86.2843456,70.0343625 87.3663115,68.5490393 C88.4234383,67.1036422 89.406006,65.6047863 90.310143,64.0583772 C91.3004334,62.3668683 92.1142908,60.5773896 92.7388039,58.71833 C92.9869339,58.5404136 93.2630804,58.4055906 93.5557172,58.3194883 C93.7513293,58.2745487 93.9566574,58.3062508 94.1297643,58.4081198 C94.291675,58.5115232 94.3922559,58.7749557 94.431507,59.1984172 C94.4133826,59.6731298 94.3112081,60.1408151 94.1297643,60.5795913 C93.9089769,61.2197076 93.6366725,61.9583033 93.3128511,62.7953785 L92.28251,65.4912529 C91.9194375,66.4465034 91.6005224,67.3795961 91.3257648,68.2905308 C91.0705972,69.1266636 90.8787026,69.980939 90.7517177,70.8460721 C90.6296409,71.4949161 90.664981,72.1637174 90.8547518,72.7959648 C90.8940029,72.9190641 91.0142093,72.8895203 91.2153711,72.7073333 C91.4807171,72.4528522 91.7267228,72.1788072 91.951329,71.8874921 C92.2457122,71.5231182 92.5793464,71.0922706 92.9522317,70.5949495 C93.325117,70.0976284 93.693096,69.5855353 94.0561685,69.0586704 C94.9245988,67.7981336 95.905876,66.3381761 97,64.6787976 C96.9411234,64.9840839 96.8699808,65.2893701 96.7865722,65.5946563 C96.7031637,65.8999426 96.6271147,66.173223 96.5584253,66.4144976 C96.4731677,66.6856415 96.3673719,66.9498444 96.2419634,67.2047951 C96.1634612,67.3672861 95.9966441,67.6454905 95.741512,68.0394082 C95.48638,68.433326 95.1870904,68.8838694 94.8436434,69.3910385 C94.5001964,69.8834356 94.1322175,70.4053766 93.7397066,70.9568614 C93.3471958,71.5083462 92.9620445,72.0007434 92.5842528,72.4340529 C92.2697614,72.8062428 91.9356495,73.1612764 91.5833501,73.4976308 C91.2889669,73.7733732 91.06082,73.8989344 90.8989093,73.8743146 C90.6099332,73.7979871 90.3443892,73.6507799 90.1261535,73.4459291 C89.7763032,73.107564 89.5331879,72.6735246 89.4269935,72.1977023 C89.2377166,71.4277015 89.1706562,70.6325555 89.2282849,69.8415819 C89.3225748,68.5567245 89.5570306,67.2861256 89.9274449,66.0525857 C89.9863215,65.831007 89.9004597,65.8974806 89.6698596,66.2520066 L88.6983952,67.729198 C88.2813524,68.3791623 87.805433,69.1054481 87.2706369,69.9080555 C86.7358409,70.7106628 86.2108576,71.4492586 85.6956871,72.1238427 C85.2647013,72.6903093 84.7708861,73.2057178 84.2237714,73.6601218 C83.7674775,74.0244957 83.4093113,74.0958933 83.1492729,73.8743146 C82.7214906,73.4578628 82.4268702,72.9230742 82.3029213,72.3380355 C82.0892649,71.5236083 81.9877409,70.6836547 82.0011786,69.8415819 C82.008522,68.8159055 82.1045569,67.7928042 82.2882022,66.7837955 C82.4838517,65.6766187 82.7997438,64.5942777 83.2302282,63.5561321 C83.6646432,62.5094777 84.2204442,61.5178455 84.8861334,60.6017491 C85.5428704,59.6881299 86.3671376,58.9085361 87.3147944,58.3047164 C87.7222423,58.0413493 88.2143527,57.9436309 88.6910356,58.031436 C89.2064754,58.1055609 89.7047892,58.2705939 90.1629514,58.5189092 C90.5727875,58.7374109 90.9494675,59.0134724 91.2816073,59.3387504 C91.5612713,59.6391127 91.7011033,59.8705394 91.7011033,60.0330304 Z" id="Shape" fill="#C2C2C2"></path>
                </g>
            </g>
        </g>
    </g>
</svg>