<?xml version="1.0" encoding="UTF-8"?>
<svg width="29px" height="29px" viewBox="0 0 29 29" version="1.1" xmlns="http://www.w3.org/2000/svg" xmlns:xlink="http://www.w3.org/1999/xlink">
    <!-- Generator: Sketch 49.1 (51147) - http://www.bohemiancoding.com/sketch -->
    <title>Group 2 Copy</title>
    <desc>Created with Sketch.</desc>
    <defs>
        <path d="M29.2125465,14.25 C29.2125465,22.1383929 22.6747475,28.5 14.6841042,28.5 C6.64157363,28.5 0.155661882,22.0875 0.155661882,14.25 C0.155661882,6.36160714 6.69346093,0 14.6841042,0 C22.7266348,0 29.2125465,6.36160714 29.2125465,14.25 Z" id="path-1"></path>
    </defs>
    <g id="Page-1" stroke="none" stroke-width="1" fill="none" fill-rule="evenodd">
        <g id="Group-2-Copy">
            <g id="logo_eduzz_2018_horizontal_02">
                <path d="M28.6515152,14.25 C28.6515152,22.1383929 22.2049242,28.5 14.3257576,28.5 C6.39542749,28.5 0,22.0875 0,14.25 C0,6.36160714 6.44659091,0 14.3257576,0 C22.2560877,0 28.6515152,6.36160714 28.6515152,14.25 Z" id="Shape" fill="#FFCD33" fill-rule="nonzero"></path>
                <g id="Clipped">
                    <mask id="mask-2" fill="white">
                        <use xlink:href="#path-1"></use>
                    </mask>
                    <g id="a"></g>
                    <g id="Group" mask="url(#mask-2)" fill="#FFFFFF" fill-rule="nonzero">
                        <g transform="translate(-11.934078, 4.071429)" id="Shape">
                            <path d="M27.2927166,2.85 C27.2927166,4.32589286 26.0993089,5.49642857 24.5945774,5.49642857 L7.52365763,5.49642857 C6.0189261,5.49642857 4.82551834,4.32589286 4.82551834,2.85 C4.82551834,1.37410714 6.0189261,0.203571429 7.52365763,0.203571429 L24.5945774,0.203571429 C26.0474216,0.203571429 27.2927166,1.37410714 27.2927166,2.85 Z M22.6228602,9.975 C22.6228602,11.4508929 21.4294524,12.6214286 19.9247209,12.6214286 L2.90568846,12.6214286 C1.40095694,12.6214286 0.207549176,11.4508929 0.207549176,9.975 C0.207549176,8.49910714 1.40095694,7.32857143 2.90568846,7.32857143 L19.9766082,7.32857143 C21.4294524,7.32857143 22.6228602,8.49910714 22.6228602,9.975 Z M27.2927166,17.0491071 C27.2927166,18.525 26.0993089,19.6955357 24.5945774,19.6955357 L7.52365763,19.6955357 C6.0189261,19.6955357 4.82551834,18.525 4.82551834,17.0491071 C4.82551834,15.5732143 6.0189261,14.4026786 7.52365763,14.4026786 L24.5945774,14.4026786 C26.0474216,14.4026786 27.2927166,15.6241071 27.2927166,17.0491071 Z"></path>
                        </g>
                    </g>
                </g>
            </g>
        </g>
    </g>
</svg>